GoogleSansCode-BoldProportional.ufo
<glyph name="exclam" format="2">
  <advance width="1200"/>
  <unicode hex="0021"/>
  <outline>
    <contour>
      <point x="451" y="597" type="line"/>
      <point x="749" y="597" type="line"/>
      <point x="787" y="1494" type="line"/>
      <point x="413" y="1494" type="line"/>
    </contour>
    <contour>
      <point x="600" y="-34" type="curve" smooth="yes"/>
      <point x="716" y="-34"/>
      <point x="806" y="57"/>
      <point x="806" y="172" type="curve" smooth="yes"/>
      <point x="806" y="287"/>
      <point x="716" y="378"/>
      <point x="600" y="378" type="curve" smooth="yes"/>
      <point x="484" y="378"/>
      <point x="394" y="287"/>
      <point x="394" y="172" type="curve" smooth="yes"/>
      <point x="394" y="57"/>
      <point x="484" y="-34"/>
    </contour>
  </outline>
</glyph>
<glyph name="numbersign" format="2">
  <advance width="1200"/>
  <unicode hex="0023"/>
  <outline>
    <contour>
      <point x="602" y="-17" type="line"/>
      <point x="832" y="-17" type="line"/>
      <point x="1035" y="1450" type="line"/>
      <point x="805" y="1450" type="line"/>
    </contour>
    <contour>
      <point x="165" y="-17" type="line"/>
      <point x="395" y="-17" type="line"/>
      <point x="598" y="1450" type="line"/>
      <point x="368" y="1450" type="line"/>
    </contour>
    <contour>
      <point x="23" y="339" type="line"/>
      <point x="1104" y="339" type="line"/>
      <point x="1104" y="570" type="line"/>
      <point x="23" y="570" type="line"/>
    </contour>
    <contour>
      <point x="96" y="863" type="line"/>
      <point x="1177" y="863" type="line"/>
      <point x="1177" y="1094" type="line"/>
      <point x="96" y="1094" type="line"/>
    </contour>
  </outline>
</glyph>
<glyph name="percent" format="2">
  <advance width="1200"/>
  <unicode hex="0025"/>
  <outline>
    <contour>
      <point x="151" y="230" type="line"/>
      <point x="1191" y="1021" type="line"/>
      <point x="1049" y="1203" type="line"/>
      <point x="9" y="412" type="line"/>
    </contour>
    <contour>
      <point x="852" y="-34" type="curve" smooth="yes"/>
      <point x="1043" y="-34"/>
      <point x="1170" y="103"/>
      <point x="1170" y="285" type="curve" smooth="yes"/>
      <point x="1170" y="293" type="line" smooth="yes"/>
      <point x="1170" y="476"/>
      <point x="1043" y="612"/>
      <point x="852" y="612" type="curve" smooth="yes"/>
      <point x="660" y="612"/>
      <point x="533" y="476"/>
      <point x="533" y="293" type="curve" smooth="yes"/>
      <point x="533" y="285" type="line" smooth="yes"/>
      <point x="533" y="103"/>
      <point x="660" y="-34"/>
    </contour>
    <contour>
      <point x="852" y="152" type="curve" smooth="yes"/>
      <point x="780" y="152"/>
      <point x="733" y="206"/>
      <point x="733" y="287" type="curve" smooth="yes"/>
      <point x="733" y="291" type="line" smooth="yes"/>
      <point x="733" y="372"/>
      <point x="780" y="426"/>
      <point x="852" y="426" type="curve" smooth="yes"/>
      <point x="923" y="426"/>
      <point x="970" y="372"/>
      <point x="970" y="291" type="curve" smooth="yes"/>
      <point x="970" y="287" type="line" smooth="yes"/>
      <point x="970" y="206"/>
      <point x="923" y="152"/>
    </contour>
    <contour>
      <point x="349" y="820" type="curve" smooth="yes"/>
      <point x="540" y="820"/>
      <point x="667" y="957"/>
      <point x="667" y="1139" type="curve" smooth="yes"/>
      <point x="667" y="1147" type="line" smooth="yes"/>
      <point x="667" y="1330"/>
      <point x="540" y="1466"/>
      <point x="349" y="1466" type="curve" smooth="yes"/>
      <point x="157" y="1466"/>
      <point x="30" y="1330"/>
      <point x="30" y="1147" type="curve" smooth="yes"/>
      <point x="30" y="1139" type="line" smooth="yes"/>
      <point x="30" y="957"/>
      <point x="157" y="820"/>
    </contour>
    <contour>
      <point x="349" y="1006" type="curve" smooth="yes"/>
      <point x="277" y="1006"/>
      <point x="230" y="1060"/>
      <point x="230" y="1141" type="curve" smooth="yes"/>
      <point x="230" y="1145" type="line" smooth="yes"/>
      <point x="230" y="1226"/>
      <point x="277" y="1280"/>
      <point x="349" y="1280" type="curve" smooth="yes"/>
      <point x="420" y="1280"/>
      <point x="467" y="1226"/>
      <point x="467" y="1145" type="curve" smooth="yes"/>
      <point x="467" y="1141" type="line" smooth="yes"/>
      <point x="467" y="1060"/>
      <point x="420" y="1006"/>
    </contour>
  </outline>
</glyph>
<glyph name="parenright" format="2">
  <advance width="1200"/>
  <unicode hex="0029"/>
  <outline>
    <contour>
      <point x="308" y="-342" type="line"/>
      <point x="704" y="-52"/>
      <point x="882" y="257"/>
      <point x="882" y="669" type="curve" smooth="yes"/>
      <point x="882" y="1081"/>
      <point x="704" y="1390"/>
      <point x="308" y="1680" type="curve"/>
      <point x="140" y="1459" type="line"/>
      <point x="439" y="1238"/>
      <point x="578" y="992"/>
      <point x="578" y="669" type="curve" smooth="yes"/>
      <point x="578" y="346"/>
      <point x="439" y="100"/>
      <point x="140" y="-121" type="curve"/>
    </contour>
  </outline>
</glyph>
<glyph name="asterisk" format="2">
  <advance width="1200"/>
  <unicode hex="002A"/>
  <outline>
    <contour>
      <point x="173" y="405" type="line"/>
      <point x="636" y="693" type="line"/>
      <point x="1141" y="944" type="line"/>
      <point x="1027" y="1143" type="line"/>
      <point x="564" y="854" type="line"/>
      <point x="59" y="604" type="line"/>
    </contour>
    <contour>
      <point x="1027" y="405" type="line"/>
      <point x="1141" y="604" type="line"/>
      <point x="636" y="854" type="line"/>
      <point x="173" y="1143" type="line"/>
      <point x="59" y="944" type="line"/>
      <point x="564" y="693" type="line"/>
    </contour>
    <contour>
      <point x="488" y="208" type="line"/>
      <point x="712" y="208" type="line"/>
      <point x="712" y="1340" type="line"/>
      <point x="488" y="1340" type="line"/>
    </contour>
  </outline>
</glyph>
<glyph name="plus" format="2">
  <advance width="1200"/>
  <unicode hex="002B"/>
  <outline>
    <contour>
      <point x="447" y="159" type="line"/>
      <point x="753" y="159" type="line"/>
      <point x="753" y="1135" type="line"/>
      <point x="447" y="1135" type="line"/>
    </contour>
    <contour>
      <point x="101" y="502" type="line"/>
      <point x="1099" y="502" type="line"/>
      <point x="1099" y="792" type="line"/>
      <point x="101" y="792" type="line"/>
    </contour>
  </outline>
</glyph>
<glyph name="hyphen" format="2">
  <advance width="1200"/>
  <unicode hex="002D"/>
  <outline>
    <contour>
      <point x="128" y="493" type="line"/>
      <point x="1072" y="493" type="line"/>
      <point x="1072" y="799" type="line"/>
      <point x="128" y="799" type="line"/>
    </contour>
  </outline>
</glyph>
<glyph name="period" format="2">
  <advance width="1200"/>
  <unicode hex="002E"/>
  <outline>
    <contour>
      <point x="600" y="-27" type="curve" smooth="yes"/>
      <point x="717" y="-27"/>
      <point x="806" y="63"/>
      <point x="806" y="179" type="curve" smooth="yes"/>
      <point x="806" y="293"/>
      <point x="717" y="384"/>
      <point x="600" y="384" type="curve" smooth="yes"/>
      <point x="485" y="384"/>
      <point x="394" y="293"/>
      <point x="394" y="179" type="curve" smooth="yes"/>
      <point x="394" y="63"/>
      <point x="485" y="-27"/>
    </contour>
  </outline>
</glyph>
<glyph name="slash" format="2">
  <advance width="1200"/>
  <unicode hex="002F"/>
  <outline>
    <contour>
      <point x="104" y="-176" type="line"/>
      <point x="401" y="-176" type="line"/>
      <point x="1096" y="1460" type="line"/>
      <point x="799" y="1460" type="line"/>
    </contour>
  </outline>
</glyph>
<glyph name="three" format="2">
  <advance width="1200"/>
  <unicode hex="0033"/>
  <outline>
    <contour>
      <point x="643" y="-34" type="curve" smooth="yes"/>
      <point x="923" y="-34"/>
      <point x="1116" y="132"/>
      <point x="1116" y="373" type="curve" smooth="yes"/>
      <point x="1116" y="385" type="line" smooth="yes"/>
      <point x="1116" y="558"/>
      <point x="1012" y="696"/>
      <point x="816" y="736" type="curve"/>
      <point x="816" y="743" type="line"/>
      <point x="981" y="793"/>
      <point x="1073" y="918"/>
      <point x="1073" y="1081" type="curve" smooth="yes"/>
      <point x="1073" y="1091" type="line" smooth="yes"/>
      <point x="1073" y="1314"/>
      <point x="891" y="1466"/>
      <point x="618" y="1466" type="curve" smooth="yes"/>
      <point x="364" y="1466"/>
      <point x="170" y="1336"/>
      <point x="105" y="1123" type="curve"/>
      <point x="387" y="1030" type="line"/>
      <point x="415" y="1123"/>
      <point x="492" y="1178"/>
      <point x="594" y="1178" type="curve" smooth="yes"/>
      <point x="702" y="1178"/>
      <point x="762" y="1121"/>
      <point x="762" y="1036" type="curve" smooth="yes"/>
      <point x="762" y="1019" type="line" smooth="yes"/>
      <point x="762" y="923"/>
      <point x="691" y="869"/>
      <point x="567" y="869" type="curve" smooth="yes"/>
      <point x="413" y="869" type="line"/>
      <point x="413" y="587" type="line"/>
      <point x="599" y="587" type="line" smooth="yes"/>
      <point x="739" y="587"/>
      <point x="807" y="529"/>
      <point x="807" y="432" type="curve" smooth="yes"/>
      <point x="807" y="412" type="line" smooth="yes"/>
      <point x="807" y="312"/>
      <point x="733" y="255"/>
      <point x="618" y="255" type="curve" smooth="yes"/>
      <point x="480" y="255"/>
      <point x="388" y="324"/>
      <point x="349" y="458" type="curve"/>
      <point x="73" y="365" type="line"/>
      <point x="145" y="109"/>
      <point x="345" y="-34"/>
    </contour>
  </outline>
</glyph>
<glyph name="four" format="2">
  <advance width="1200"/>
  <unicode hex="0034"/>
  <outline>
    <contour>
      <point x="650" y="0" type="line"/>
      <point x="950" y="0" type="line"/>
      <point x="950" y="1432" type="line"/>
      <point x="640" y="1432" type="line"/>
      <point x="46" y="549" type="line"/>
      <point x="46" y="305" type="line"/>
      <point x="1144" y="305" type="line"/>
      <point x="1144" y="575" type="line"/>
      <point x="851" y="575" type="line"/>
      <point x="780" y="559" type="line"/>
      <point x="341" y="559" type="line"/>
      <point x="341" y="567" type="line"/>
      <point x="660" y="1041" type="line"/>
      <point x="711" y="1041" type="line"/>
      <point x="668" y="1098" type="line"/>
      <point x="668" y="487" type="line"/>
      <point x="650" y="438" type="line"/>
    </contour>
  </outline>
</glyph>
<glyph name="five" format="2">
  <advance width="1200"/>
  <unicode hex="0035"/>
  <outline>
    <contour>
      <point x="595" y="-34" type="curve" smooth="yes"/>
      <point x="907" y="-34"/>
      <point x="1118" y="167"/>
      <point x="1118" y="466" type="curve" smooth="yes"/>
      <point x="1118" y="476" type="line" smooth="yes"/>
      <point x="1118" y="752"/>
      <point x="953" y="938"/>
      <point x="708" y="938" type="curve" smooth="yes"/>
      <point x="585" y="938"/>
      <point x="482" y="896"/>
      <point x="396" y="812" type="curve"/>
      <point x="388" y="816" type="line"/>
      <point x="436" y="1155" type="line"/>
      <point x="1032" y="1155" type="line"/>
      <point x="1032" y="1432" type="line"/>
      <point x="218" y="1432" type="line"/>
      <point x="120" y="668" type="line"/>
      <point x="388" y="585" type="line"/>
      <point x="441" y="649"/>
      <point x="517" y="684"/>
      <point x="603" y="684" type="curve" smooth="yes"/>
      <point x="726" y="684"/>
      <point x="808" y="603"/>
      <point x="808" y="479" type="curve" smooth="yes"/>
      <point x="808" y="459" type="line" smooth="yes"/>
      <point x="808" y="335"/>
      <point x="724" y="255"/>
      <point x="595" y="255" type="curve" smooth="yes"/>
      <point x="471" y="255"/>
      <point x="380" y="328"/>
      <point x="346" y="456" type="curve"/>
      <point x="72" y="356" type="line"/>
      <point x="136" y="117"/>
      <point x="338" y="-34"/>
    </contour>
  </outline>
</glyph>
<glyph name="seven" format="2">
  <advance width="1200"/>
  <unicode hex="0037"/>
  <outline>
    <contour>
      <point x="497" y="-34" type="line"/>
      <point x="1094" y="1190" type="line"/>
      <point x="1094" y="1432" type="line"/>
      <point x="106" y="1432" type="line"/>
      <point x="106" y="1143" type="line"/>
      <point x="732" y="1143" type="line"/>
      <point x="732" y="1135" type="line"/>
      <point x="218" y="96" type="line"/>
    </contour>
  </outline>
</glyph>
<glyph name="eight" format="2">
  <advance width="1200"/>
  <unicode hex="0038"/>
  <outline>
    <contour>
      <point x="600" y="-34" type="curve" smooth="yes"/>
      <point x="897" y="-34"/>
      <point x="1105" y="138"/>
      <point x="1105" y="384" type="curve" smooth="yes"/>
      <point x="1105" y="390" type="line" smooth="yes"/>
      <point x="1105" y="551"/>
      <point x="1008" y="696"/>
      <point x="857" y="757" type="curve"/>
      <point x="857" y="765" type="line"/>
      <point x="982" y="827"/>
      <point x="1060" y="945"/>
      <point x="1060" y="1077" type="curve" smooth="yes"/>
      <point x="1060" y="1081" type="line" smooth="yes"/>
      <point x="1060" y="1310"/>
      <point x="874" y="1466"/>
      <point x="600" y="1466" type="curve" smooth="yes"/>
      <point x="326" y="1466"/>
      <point x="140" y="1310"/>
      <point x="140" y="1081" type="curve" smooth="yes"/>
      <point x="140" y="1077" type="line" smooth="yes"/>
      <point x="140" y="946"/>
      <point x="219" y="825"/>
      <point x="343" y="765" type="curve"/>
      <point x="343" y="757" type="line"/>
      <point x="192" y="696"/>
      <point x="95" y="553"/>
      <point x="95" y="390" type="curve" smooth="yes"/>
      <point x="95" y="384" type="line" smooth="yes"/>
      <point x="95" y="138"/>
      <point x="303" y="-34"/>
    </contour>
    <contour>
      <point x="600" y="237" type="curve" smooth="yes"/>
      <point x="479" y="237"/>
      <point x="400" y="313"/>
      <point x="400" y="428" type="curve" smooth="yes"/>
      <point x="400" y="444" type="line" smooth="yes"/>
      <point x="400" y="560"/>
      <point x="479" y="635"/>
      <point x="600" y="635" type="curve" smooth="yes"/>
      <point x="722" y="635"/>
      <point x="801" y="560"/>
      <point x="801" y="444" type="curve" smooth="yes"/>
      <point x="801" y="428" type="line" smooth="yes"/>
      <point x="801" y="313"/>
      <point x="722" y="237"/>
    </contour>
    <contour>
      <point x="600" y="875" type="curve" smooth="yes"/>
      <point x="501" y="875"/>
      <point x="436" y="937"/>
      <point x="436" y="1030" type="curve" smooth="yes"/>
      <point x="436" y="1044" type="line" smooth="yes"/>
      <point x="436" y="1138"/>
      <point x="501" y="1200"/>
      <point x="600" y="1200" type="curve" smooth="yes"/>
      <point x="700" y="1200"/>
      <point x="764" y="1138"/>
      <point x="764" y="1044" type="curve" smooth="yes"/>
      <point x="764" y="1030" type="line" smooth="yes"/>
      <point x="764" y="936"/>
      <point x="699" y="875"/>
    </contour>
  </outline>
</glyph>
<glyph name="greater" format="2">
  <advance width="1200"/>
  <unicode hex="003E"/>
  <outline>
    <contour>
      <point x="140" y="37" type="line"/>
      <point x="1100" y="530" type="line"/>
      <point x="1100" y="762" type="line"/>
      <point x="140" y="1255" type="line"/>
      <point x="140" y="957" type="line"/>
      <point x="758" y="652" type="line"/>
      <point x="758" y="640" type="line"/>
      <point x="140" y="335" type="line"/>
    </contour>
  </outline>
</glyph>
<glyph name="at" format="2">
  <advance width="1200"/>
  <unicode hex="0040"/>
  <outline>
    <contour>
      <point x="706" y="-233" type="curve" smooth="yes"/>
      <point x="862" y="-233"/>
      <point x="993" y="-192"/>
      <point x="1106" y="-107" type="curve"/>
      <point x="986" y="95" type="line"/>
      <point x="894" y="26"/>
      <point x="806" y="-5"/>
      <point x="702" y="-5" type="curve" smooth="yes"/>
      <point x="423" y="-5"/>
      <point x="282" y="217"/>
      <point x="282" y="656" type="curve" smooth="yes"/>
      <point x="282" y="720" type="line" smooth="yes"/>
      <point x="282" y="1167"/>
      <point x="401" y="1381"/>
      <point x="650" y="1381" type="curve" smooth="yes"/>
      <point x="821" y="1381"/>
      <point x="908" y="1275"/>
      <point x="908" y="1066" type="curve" smooth="yes"/>
      <point x="908" y="973" type="line"/>
      <point x="900" y="973" type="line"/>
      <point x="851" y="1070"/>
      <point x="790" y="1112"/>
      <point x="699" y="1112" type="curve" smooth="yes"/>
      <point x="513" y="1112"/>
      <point x="389" y="936"/>
      <point x="389" y="673" type="curve" smooth="yes"/>
      <point x="389" y="647" type="line" smooth="yes"/>
      <point x="389" y="385"/>
      <point x="511" y="210"/>
      <point x="692" y="210" type="curve" smooth="yes"/>
      <point x="782" y="210"/>
      <point x="844" y="252"/>
      <point x="900" y="351" type="curve"/>
      <point x="908" y="351" type="line"/>
      <point x="908" y="221" type="line"/>
      <point x="1129" y="221" type="line"/>
      <point x="1129" y="1071" type="line" smooth="yes"/>
      <point x="1129" y="1411"/>
      <point x="952" y="1608"/>
      <point x="646" y="1608" type="curve" smooth="yes"/>
      <point x="253" y="1608"/>
      <point x="43" y="1297"/>
      <point x="43" y="715" type="curve" smooth="yes"/>
      <point x="43" y="661" type="line" smooth="yes"/>
      <point x="43" y="86"/>
      <point x="279" y="-233"/>
    </contour>
    <contour>
      <point x="756" y="425" type="curve" smooth="yes"/>
      <point x="661" y="425"/>
      <point x="605" y="506"/>
      <point x="605" y="643" type="curve" smooth="yes"/>
      <point x="605" y="679" type="line" smooth="yes"/>
      <point x="605" y="814"/>
      <point x="662" y="897"/>
      <point x="756" y="897" type="curve" smooth="yes"/>
      <point x="847" y="897"/>
      <point x="902" y="816"/>
      <point x="902" y="679" type="curve" smooth="yes"/>
      <point x="902" y="643" type="line" smooth="yes"/>
      <point x="902" y="505"/>
      <point x="848" y="425"/>
    </contour>
  </outline>
</glyph>
<glyph name="A" format="2">
  <advance width="1200"/>
  <unicode hex="0041"/>
  <anchor x="597" y="24" name="bottom"/>
  <anchor x="1184" y="0" name="ogonek"/>
  <anchor x="602" y="1432" name="top"/>
  <outline>
    <contour>
      <point x="16" y="0" type="line"/>
      <point x="326" y="0" type="line"/>
      <point x="550" y="885" type="line"/>
      <point x="593" y="1095" type="line"/>
      <point x="600" y="1095" type="line"/>
      <point x="647" y="885" type="line"/>
      <point x="868" y="0" type="line"/>
      <point x="1184" y="0" type="line"/>
      <point x="743" y="1432" type="line"/>
      <point x="461" y="1432" type="line"/>
    </contour>
    <contour>
      <point x="220" y="276" type="line"/>
      <point x="970" y="276" type="line"/>
      <point x="888" y="517" type="line"/>
      <point x="296" y="517" type="line"/>
    </contour>
  </outline>
</glyph>
<glyph name="E" format="2">
  <advance width="1200"/>
  <unicode hex="0045"/>
  <anchor x="597" y="0" name="bottom"/>
  <anchor x="1050" y="0" name="ogonek"/>
  <anchor x="589" y="1432" name="top"/>
  <outline>
    <contour>
      <point x="144" y="0" type="line"/>
      <point x="1050" y="0" type="line"/>
      <point x="1050" y="286" type="line"/>
      <point x="450" y="286" type="line"/>
      <point x="450" y="1146" type="line"/>
      <point x="1034" y="1146" type="line"/>
      <point x="1034" y="1432" type="line"/>
      <point x="144" y="1432" type="line"/>
    </contour>
    <contour>
      <point x="333" y="589" type="line"/>
      <point x="954" y="589" type="line"/>
      <point x="954" y="873" type="line"/>
      <point x="333" y="873" type="line"/>
    </contour>
  </outline>
</glyph>
<glyph name="L" format="2">
  <advance width="1200"/>
  <unicode hex="004C"/>
  <anchor x="635" y="0" name="bottom"/>
  <anchor x="316" y="1432" name="top"/>
  <outline>
    <contour>
      <point x="162" y="0" type="line"/>
      <point x="1108" y="0" type="line"/>
      <point x="1108" y="290" type="line"/>
      <point x="470" y="290" type="line"/>
      <point x="470" y="1432" type="line"/>
      <point x="162" y="1432" type="line"/>
    </contour>
  </outline>
</glyph>
<glyph name="M" format="2">
  <advance width="1200"/>
  <unicode hex="004D"/>
  <outline>
    <contour>
      <point x="53" y="0" type="line"/>
      <point x="339" y="0" type="line"/>
      <point x="339" y="487" type="line"/>
      <point x="308" y="945" type="line"/>
      <point x="322" y="945" type="line"/>
      <point x="497" y="431" type="line"/>
      <point x="703" y="431" type="line"/>
      <point x="878" y="945" type="line"/>
      <point x="892" y="945" type="line"/>
      <point x="861" y="487" type="line"/>
      <point x="861" y="0" type="line"/>
      <point x="1147" y="0" type="line"/>
      <point x="1147" y="1432" type="line"/>
      <point x="843" y="1432" type="line"/>
      <point x="691" y="1012" type="line"/>
      <point x="607" y="727" type="line"/>
      <point x="593" y="727" type="line"/>
      <point x="509" y="1012" type="line"/>
      <point x="357" y="1432" type="line"/>
      <point x="53" y="1432" type="line"/>
    </contour>
  </outline>
</glyph>
<glyph name="Q" format="2">
  <advance width="1200"/>
  <unicode hex="0051"/>
  <outline>
    <contour>
      <point x="599" y="16" type="curve" smooth="yes"/>
      <point x="948" y="16"/>
      <point x="1144" y="271"/>
      <point x="1144" y="694" type="curve" smooth="yes"/>
      <point x="1144" y="738" type="line" smooth="yes"/>
      <point x="1144" y="1193"/>
      <point x="940" y="1466"/>
      <point x="600" y="1466" type="curve" smooth="yes"/>
      <point x="260" y="1466"/>
      <point x="56" y="1193"/>
      <point x="56" y="738" type="curve" smooth="yes"/>
      <point x="56" y="694" type="line" smooth="yes"/>
      <point x="56" y="271"/>
      <point x="273" y="16"/>
    </contour>
    <contour>
      <point x="1045" y="-420" type="curve" smooth="yes"/>
      <point x="1104" y="-420"/>
      <point x="1156" y="-408"/>
      <point x="1210" y="-384" type="curve"/>
      <point x="1145" y="-105" type="line"/>
      <point x="1114" y="-119"/>
      <point x="1087" y="-126"/>
      <point x="1056" y="-126" type="curve" smooth="yes"/>
      <point x="987" y="-126"/>
      <point x="938" y="-96"/>
      <point x="855" y="10" type="curve" smooth="yes"/>
      <point x="758" y="135"/>
      <point x="662" y="193"/>
      <point x="516" y="193" type="curve" smooth="yes"/>
      <point x="285" y="193"/>
      <point x="128" y="49"/>
      <point x="85" y="-218" type="curve"/>
      <point x="388" y="-271" type="line"/>
      <point x="411" y="-110"/>
      <point x="454" y="-34"/>
      <point x="528" y="-34" type="curve" smooth="yes"/>
      <point x="583" y="-34"/>
      <point x="610" y="-59"/>
      <point x="699" y="-194" type="curve" smooth="yes"/>
      <point x="808" y="-360"/>
      <point x="906" y="-420"/>
    </contour>
    <contour>
      <point x="600" y="256" type="curve" smooth="yes"/>
      <point x="451" y="256"/>
      <point x="370" y="397"/>
      <point x="370" y="683" type="curve" smooth="yes"/>
      <point x="370" y="737" type="line" smooth="yes"/>
      <point x="370" y="1023"/>
      <point x="449" y="1176"/>
      <point x="600" y="1176" type="curve" smooth="yes"/>
      <point x="751" y="1176"/>
      <point x="830" y="1023"/>
      <point x="830" y="737" type="curve" smooth="yes"/>
      <point x="830" y="683" type="line" smooth="yes"/>
      <point x="830" y="397"/>
      <point x="749" y="256"/>
    </contour>
  </outline>
</glyph>
<glyph name="S" format="2">
  <advance width="1200"/>
  <unicode hex="0053"/>
  <anchor x="642" y="0" name="bottom"/>
  <anchor x="623" y="1432" name="top"/>
  <outline>
    <contour>
      <point x="644" y="-34" type="curve" smooth="yes"/>
      <point x="937" y="-34"/>
      <point x="1132" y="132"/>
      <point x="1132" y="382" type="curve" smooth="yes"/>
      <point x="1132" y="390" type="line" smooth="yes"/>
      <point x="1132" y="600"/>
      <point x="1027" y="735"/>
      <point x="792" y="828" type="curve" smooth="yes"/>
      <point x="597" y="905" type="line" smooth="yes"/>
      <point x="484" y="950"/>
      <point x="443" y="989"/>
      <point x="443" y="1053" type="curve" smooth="yes"/>
      <point x="443" y="1059" type="line" smooth="yes"/>
      <point x="443" y="1138"/>
      <point x="512" y="1187"/>
      <point x="623" y="1187" type="curve" smooth="yes"/>
      <point x="742" y="1187"/>
      <point x="815" y="1136"/>
      <point x="847" y="1029" type="curve"/>
      <point x="1128" y="1109" type="line"/>
      <point x="1057" y="1344"/>
      <point x="885" y="1466"/>
      <point x="623" y="1466" type="curve" smooth="yes"/>
      <point x="334" y="1466"/>
      <point x="137" y="1296"/>
      <point x="137" y="1046" type="curve" smooth="yes"/>
      <point x="137" y="1042" type="line" smooth="yes"/>
      <point x="137" y="858"/>
      <point x="239" y="723"/>
      <point x="440" y="644" type="curve" smooth="yes"/>
      <point x="635" y="567" type="line" smooth="yes"/>
      <point x="778" y="511"/>
      <point x="826" y="467"/>
      <point x="826" y="391" type="curve" smooth="yes"/>
      <point x="826" y="384" type="line" smooth="yes"/>
      <point x="826" y="296"/>
      <point x="759" y="245"/>
      <point x="643" y="245" type="curve" smooth="yes"/>
      <point x="484" y="245"/>
      <point x="375" y="329"/>
      <point x="337" y="479" type="curve"/>
      <point x="54" y="404" type="line"/>
      <point x="122" y="131"/>
      <point x="344" y="-34"/>
    </contour>
  </outline>
</glyph>
<glyph name="U" format="2">
  <advance width="1200"/>
  <unicode hex="0055"/>
  <anchor x="600" y="-34" name="bottom"/>
  <anchor x="869" y="0" name="ogonek"/>
  <anchor x="600" y="1432" name="top"/>
  <outline>
    <contour>
      <point x="600" y="-34" type="curve" smooth="yes"/>
      <point x="901" y="-34"/>
      <point x="1098" y="168"/>
      <point x="1098" y="466" type="curve" smooth="yes"/>
      <point x="1098" y="1432" type="line"/>
      <point x="790" y="1432" type="line"/>
      <point x="790" y="474" type="line" smooth="yes"/>
      <point x="790" y="341"/>
      <point x="720" y="256"/>
      <point x="600" y="256" type="curve" smooth="yes"/>
      <point x="481" y="256"/>
      <point x="410" y="341"/>
      <point x="410" y="474" type="curve" smooth="yes"/>
      <point x="410" y="1432" type="line"/>
      <point x="102" y="1432" type="line"/>
      <point x="102" y="466" type="line" smooth="yes"/>
      <point x="102" y="168"/>
      <point x="299" y="-34"/>
    </contour>
  </outline>
</glyph>
<glyph name="V" format="2">
  <advance width="1200"/>
  <unicode hex="0056"/>
  <outline>
    <contour>
      <point x="467" y="0" type="line"/>
      <point x="733" y="0" type="line"/>
      <point x="1184" y="1432" type="line"/>
      <point x="874" y="1432" type="line"/>
      <point x="653" y="582" type="line"/>
      <point x="606" y="337" type="line"/>
      <point x="599" y="337" type="line"/>
      <point x="553" y="582" type="line"/>
      <point x="332" y="1432" type="line"/>
      <point x="16" y="1432" type="line"/>
    </contour>
  </outline>
</glyph>
<glyph name="X" format="2">
  <advance width="1200"/>
  <unicode hex="0058"/>
  <outline>
    <contour>
      <point x="848" y="0" type="line"/>
      <point x="1182" y="0" type="line"/>
      <point x="731" y="815" type="line"/>
      <point x="698" y="834" type="line"/>
      <point x="369" y="1432" type="line"/>
      <point x="35" y="1432" type="line"/>
      <point x="453" y="680" type="line"/>
      <point x="486" y="661" type="line"/>
    </contour>
    <contour>
      <point x="18" y="0" type="line"/>
      <point x="346" y="0" type="line"/>
      <point x="704" y="650" type="line"/>
      <point x="735" y="667" type="line"/>
      <point x="1165" y="1432" type="line"/>
      <point x="837" y="1432" type="line"/>
      <point x="497" y="817" type="line"/>
      <point x="466" y="800" type="line"/>
    </contour>
  </outline>
</glyph>
<glyph name="Y" format="2">
  <advance width="1200"/>
  <unicode hex="0059"/>
  <anchor x="600" y="0" name="bottom"/>
  <anchor x="604" y="1432" name="top"/>
  <outline>
    <contour>
      <point x="477" y="438" type="line"/>
      <point x="724" y="438" type="line"/>
      <point x="1175" y="1432" type="line"/>
      <point x="850" y="1432" type="line"/>
      <point x="701" y="1076" type="line"/>
      <point x="609" y="803" type="line"/>
      <point x="601" y="803" type="line"/>
      <point x="506" y="1076" type="line"/>
      <point x="358" y="1432" type="line"/>
      <point x="25" y="1432" type="line"/>
    </contour>
    <contour>
      <point x="446" y="0" type="line"/>
      <point x="754" y="0" type="line"/>
      <point x="754" y="676" type="line"/>
      <point x="446" y="676" type="line"/>
    </contour>
  </outline>
</glyph>
<glyph name="asciicircum" format="2">
  <advance width="1200"/>
  <unicode hex="005E"/>
  <outline>
    <contour>
      <point x="34" y="640" type="line"/>
      <point x="360" y="640" type="line"/>
      <point x="595" y="1094" type="line"/>
      <point x="605" y="1094" type="line"/>
      <point x="840" y="640" type="line"/>
      <point x="1166" y="640" type="line"/>
      <point x="729" y="1432" type="line"/>
      <point x="471" y="1432" type="line"/>
    </contour>
  </outline>
</glyph>
<glyph name="underscore" format="2">
  <advance width="1200"/>
  <unicode hex="005F"/>
  <outline>
    <contour>
      <point x="80" y="-294" type="line"/>
      <point x="1120" y="-294" type="line"/>
      <point x="1120" y="-34" type="line"/>
      <point x="80" y="-34" type="line"/>
    </contour>
  </outline>
</glyph>
<glyph name="grave" format="2">
  <advance width="1200"/>
  <unicode hex="0060"/>
  <outline>
    <contour>
      <point x="587" y="882" type="line"/>
      <point x="863" y="882" type="line"/>
      <point x="621" y="1460" type="line"/>
      <point x="263" y="1460" type="line"/>
    </contour>
  </outline>
</glyph>
<glyph name="b" format="2">
  <advance width="1200"/>
  <unicode hex="0062"/>
  <outline>
    <contour>
      <point x="721" y="-34" type="curve" smooth="yes"/>
      <point x="953" y="-34"/>
      <point x="1108" y="187"/>
      <point x="1108" y="518" type="curve" smooth="yes"/>
      <point x="1108" y="534" type="line" smooth="yes"/>
      <point x="1108" y="867"/>
      <point x="957" y="1086"/>
      <point x="727" y="1086" type="curve" smooth="yes"/>
      <point x="598" y="1086"/>
      <point x="500" y="1025"/>
      <point x="429" y="906" type="curve"/>
      <point x="420" y="906" type="line"/>
      <point x="420" y="1460" type="line"/>
      <point x="118" y="1460" type="line"/>
      <point x="118" y="0" type="line"/>
      <point x="410" y="0" type="line"/>
      <point x="410" y="156" type="line"/>
      <point x="419" y="156" type="line"/>
      <point x="482" y="36"/>
      <point x="592" y="-34"/>
    </contour>
    <contour>
      <point x="613" y="216" type="curve" smooth="yes"/>
      <point x="490" y="216"/>
      <point x="411" y="334"/>
      <point x="411" y="519" type="curve" smooth="yes"/>
      <point x="411" y="533" type="line" smooth="yes"/>
      <point x="411" y="718"/>
      <point x="490" y="836"/>
      <point x="612" y="836" type="curve" smooth="yes"/>
      <point x="736" y="836"/>
      <point x="806" y="729"/>
      <point x="806" y="539" type="curve" smooth="yes"/>
      <point x="806" y="514" type="line" smooth="yes"/>
      <point x="806" y="324"/>
      <point x="736" y="216"/>
    </contour>
  </outline>
</glyph>
<glyph name="c" format="2">
  <advance width="1200"/>
  <unicode hex="0063"/>
  <anchor x="656" y="0" name="bottom"/>
  <anchor x="654" y="1052" name="top"/>
  <outline>
    <contour>
      <point x="654" y="-34" type="curve" smooth="yes"/>
      <point x="890" y="-34"/>
      <point x="1074" y="96"/>
      <point x="1135" y="304" type="curve"/>
      <point x="865" y="393" type="line"/>
      <point x="836" y="284"/>
      <point x="766" y="226"/>
      <point x="658" y="226" type="curve" smooth="yes"/>
      <point x="514" y="226"/>
      <point x="423" y="337"/>
      <point x="423" y="511" type="curve" smooth="yes"/>
      <point x="423" y="541" type="line" smooth="yes"/>
      <point x="423" y="719"/>
      <point x="509" y="827"/>
      <point x="652" y="827" type="curve" smooth="yes"/>
      <point x="754" y="827"/>
      <point x="819" y="772"/>
      <point x="846" y="664" type="curve"/>
      <point x="1117" y="745" type="line"/>
      <point x="1061" y="961"/>
      <point x="896" y="1086"/>
      <point x="656" y="1086" type="curve" smooth="yes"/>
      <point x="336" y="1086"/>
      <point x="125" y="866"/>
      <point x="125" y="534" type="curve" smooth="yes"/>
      <point x="125" y="519" type="line" smooth="yes"/>
      <point x="125" y="186"/>
      <point x="334" y="-34"/>
    </contour>
  </outline>
</glyph>
<glyph name="d" format="2">
  <advance width="1200"/>
  <unicode hex="0064"/>
  <outline>
    <contour>
      <point x="500" y="-34" type="curve" smooth="yes"/>
      <point x="621" y="-34"/>
      <point x="723" y="37"/>
      <point x="781" y="156" type="curve"/>
      <point x="790" y="156" type="line"/>
      <point x="790" y="0" type="line"/>
      <point x="1082" y="0" type="line"/>
      <point x="1082" y="1460" type="line"/>
      <point x="780" y="1460" type="line"/>
      <point x="780" y="907" type="line"/>
      <point x="771" y="907" type="line"/>
      <point x="710" y="1024"/>
      <point x="618" y="1086"/>
      <point x="492" y="1086" type="curve" smooth="yes"/>
      <point x="261" y="1086"/>
      <point x="92" y="867"/>
      <point x="92" y="534" type="curve" smooth="yes"/>
      <point x="92" y="519" type="line" smooth="yes"/>
      <point x="92" y="188"/>
      <point x="269" y="-34"/>
    </contour>
    <contour>
      <point x="593" y="216" type="curve" smooth="yes"/>
      <point x="469" y="216"/>
      <point x="394" y="323"/>
      <point x="394" y="514" type="curve" smooth="yes"/>
      <point x="394" y="538" type="line" smooth="yes"/>
      <point x="394" y="728"/>
      <point x="469" y="836"/>
      <point x="593" y="836" type="curve" smooth="yes"/>
      <point x="712" y="836"/>
      <point x="789" y="720"/>
      <point x="789" y="533" type="curve" smooth="yes"/>
      <point x="789" y="519" type="line" smooth="yes"/>
      <point x="789" y="331"/>
      <point x="712" y="216"/>
    </contour>
  </outline>
</glyph>
<glyph name="f" format="2">
  <advance width="1200"/>
  <unicode hex="0066"/>
  <outline>
    <contour>
      <point x="359" y="0" type="line"/>
      <point x="662" y="0" type="line"/>
      <point x="662" y="883" type="line"/>
      <point x="650" y="955" type="line"/>
      <point x="650" y="1092" type="line" smooth="yes"/>
      <point x="650" y="1193"/>
      <point x="704" y="1244"/>
      <point x="804" y="1244" type="curve" smooth="yes"/>
      <point x="877" y="1244"/>
      <point x="931" y="1221"/>
      <point x="994" y="1172" type="curve"/>
      <point x="1144" y="1375" type="line"/>
      <point x="1040" y="1456"/>
      <point x="933" y="1494"/>
      <point x="780" y="1494" type="curve" smooth="yes"/>
      <point x="513" y="1494"/>
      <point x="359" y="1351"/>
      <point x="359" y="1108" type="curve" smooth="yes"/>
    </contour>
    <contour>
      <point x="108" y="780" type="line"/>
      <point x="1093" y="780" type="line"/>
      <point x="1093" y="1008" type="line"/>
      <point x="108" y="1008" type="line"/>
    </contour>
  </outline>
</glyph>
<glyph name="g" format="2">
  <advance width="1200"/>
  <unicode hex="0067"/>
  <anchor x="597" y="1052" name="top"/>
  <outline>
    <contour>
      <point x="599" y="-572" type="curve" smooth="yes"/>
      <point x="951" y="-572"/>
      <point x="1170" y="-411"/>
      <point x="1170" y="-153" type="curve" smooth="yes"/>
      <point x="1170" y="40"/>
      <point x="1041" y="153"/>
      <point x="822" y="153" type="curve" smooth="yes"/>
      <point x="546" y="153" type="line"/>
      <point x="609" y="338" type="line"/>
      <point x="450" y="359" type="line"/>
      <point x="238" y="25" type="line"/>
      <point x="238" y="-73" type="line"/>
      <point x="766" y="-73" type="line" smooth="yes"/>
      <point x="858" y="-73"/>
      <point x="902" y="-107"/>
      <point x="902" y="-179" type="curve" smooth="yes"/>
      <point x="902" y="-280"/>
      <point x="786" y="-344"/>
      <point x="601" y="-344" type="curve" smooth="yes"/>
      <point x="411" y="-344"/>
      <point x="306" y="-278"/>
      <point x="306" y="-159" type="curve" smooth="yes"/>
      <point x="306" y="-105"/>
      <point x="324" y="-60"/>
      <point x="361" y="-21" type="curve"/>
      <point x="315" y="101" type="line"/>
      <point x="142" y="62"/>
      <point x="40" y="-51"/>
      <point x="40" y="-203" type="curve" smooth="yes"/>
      <point x="40" y="-423"/>
      <point x="265" y="-572"/>
    </contour>
    <contour>
      <point x="609" y="274" type="curve" smooth="yes"/>
      <point x="879" y="274"/>
      <point x="1067" y="439"/>
      <point x="1067" y="677" type="curve" smooth="yes"/>
      <point x="1067" y="683" type="line" smooth="yes"/>
      <point x="1067" y="912"/>
      <point x="861" y="1086"/>
      <point x="592" y="1086" type="curve" smooth="yes"/>
      <point x="322" y="1086"/>
      <point x="135" y="921"/>
      <point x="135" y="683" type="curve" smooth="yes"/>
      <point x="135" y="677" type="line" smooth="yes"/>
      <point x="135" y="448"/>
      <point x="340" y="274"/>
    </contour>
    <contour>
      <point x="601" y="506" type="curve" smooth="yes"/>
      <point x="478" y="506"/>
      <point x="403" y="570"/>
      <point x="403" y="674" type="curve" smooth="yes"/>
      <point x="403" y="682" type="line" smooth="yes"/>
      <point x="403" y="786"/>
      <point x="478" y="850"/>
      <point x="601" y="850" type="curve" smooth="yes"/>
      <point x="723" y="850"/>
      <point x="798" y="786"/>
      <point x="798" y="682" type="curve" smooth="yes"/>
      <point x="798" y="674" type="line" smooth="yes"/>
      <point x="798" y="570"/>
      <point x="723" y="506"/>
    </contour>
    <contour>
      <point x="840" y="932" type="line"/>
      <point x="904" y="1003"/>
      <point x="1001" y="1037"/>
      <point x="1141" y="1037" type="curve"/>
      <point x="1141" y="1287" type="line"/>
      <point x="922" y="1287"/>
      <point x="785" y="1185"/>
      <point x="742" y="991" type="curve"/>
    </contour>
  </outline>
</glyph>
<glyph name="j" format="2">
  <advance width="1200"/>
  <unicode hex="006A"/>
  <outline>
    <contour>
      <point x="440" y="-449" type="curve" smooth="yes"/>
      <point x="722" y="-449"/>
      <point x="894" y="-275"/>
      <point x="894" y="12" type="curve" smooth="yes"/>
      <point x="894" y="1052" type="line"/>
      <point x="592" y="1052" type="line"/>
      <point x="592" y="2" type="line" smooth="yes"/>
      <point x="592" y="-117"/>
      <point x="533" y="-183"/>
      <point x="426" y="-183" type="curve" smooth="yes"/>
      <point x="354" y="-183"/>
      <point x="290" y="-157"/>
      <point x="217" y="-103" type="curve"/>
      <point x="72" y="-328" type="line"/>
      <point x="181" y="-407"/>
      <point x="305" y="-449"/>
    </contour>
    <contour>
      <point x="203" y="828" type="line"/>
      <point x="818" y="828" type="line"/>
      <point x="818" y="1052" type="line"/>
      <point x="203" y="1052" type="line"/>
    </contour>
    <contour>
      <point x="716" y="1246" type="curve" smooth="yes"/>
      <point x="828" y="1246"/>
      <point x="912" y="1330"/>
      <point x="912" y="1440" type="curve" smooth="yes"/>
      <point x="912" y="1552"/>
      <point x="830" y="1633"/>
      <point x="716" y="1633" type="curve" smooth="yes"/>
      <point x="604" y="1633"/>
      <point x="518" y="1550"/>
      <point x="518" y="1440" type="curve" smooth="yes"/>
      <point x="518" y="1332"/>
      <point x="606" y="1246"/>
    </contour>
  </outline>
</glyph>
<glyph name="l" format="2">
  <advance width="1200"/>
  <unicode hex="006C"/>
  <anchor x="757" y="-34" name="bottom"/>
  <anchor x="515" y="1460" name="top"/>
  <outline>
    <contour>
      <point x="792" y="-34" type="curve" smooth="yes"/>
      <point x="932" y="-34"/>
      <point x="1036" y="5"/>
      <point x="1132" y="92" type="curve"/>
      <point x="974" y="305" type="line"/>
      <point x="920" y="256"/>
      <point x="877" y="236"/>
      <point x="821" y="236" type="curve" smooth="yes"/>
      <point x="720" y="236"/>
      <point x="666" y="296"/>
      <point x="666" y="412" type="curve" smooth="yes"/>
      <point x="666" y="1460" type="line"/>
      <point x="363" y="1460" type="line"/>
      <point x="363" y="390" type="line" smooth="yes"/>
      <point x="363" y="124"/>
      <point x="522" y="-34"/>
    </contour>
    <contour>
      <point x="72" y="1226" type="line"/>
      <point x="591" y="1226" type="line"/>
      <point x="591" y="1460" type="line"/>
      <point x="72" y="1460" type="line"/>
    </contour>
  </outline>
</glyph>
<glyph name="m" format="2">
  <advance width="1200"/>
  <unicode hex="006D"/>
  <outline>
    <contour>
      <point x="51" y="0" type="line"/>
      <point x="320" y="0" type="line"/>
      <point x="320" y="685" type="line" smooth="yes"/>
      <point x="320" y="782"/>
      <point x="351" y="833"/>
      <point x="406" y="833" type="curve" smooth="yes"/>
      <point x="447" y="833"/>
      <point x="467" y="798"/>
      <point x="467" y="714" type="curve" smooth="yes"/>
      <point x="467" y="0" type="line"/>
      <point x="736" y="0" type="line"/>
      <point x="736" y="686" type="line" smooth="yes"/>
      <point x="736" y="781"/>
      <point x="769" y="833"/>
      <point x="822" y="833" type="curve" smooth="yes"/>
      <point x="863" y="833"/>
      <point x="883" y="799"/>
      <point x="883" y="717" type="curve" smooth="yes"/>
      <point x="883" y="0" type="line"/>
      <point x="1152" y="0" type="line"/>
      <point x="1152" y="751" type="line" smooth="yes"/>
      <point x="1152" y="972"/>
      <point x="1077" y="1086"/>
      <point x="939" y="1086" type="curve" smooth="yes"/>
      <point x="825" y="1086"/>
      <point x="742" y="1001"/>
      <point x="698" y="847" type="curve"/>
      <point x="718" y="847" type="line"/>
      <point x="708" y="999"/>
      <point x="639" y="1086"/>
      <point x="527" y="1086" type="curve" smooth="yes"/>
      <point x="426" y="1086"/>
      <point x="359" y="1024"/>
      <point x="313" y="910" type="curve"/>
      <point x="304" y="910" type="line"/>
      <point x="304" y="1052" type="line"/>
      <point x="51" y="1052" type="line"/>
    </contour>
  </outline>
</glyph>
<glyph name="n" format="2">
  <advance width="1200"/>
  <unicode hex="006E"/>
  <anchor x="628" y="14" name="bottom"/>
  <anchor x="616" y="1052" name="top"/>
  <outline>
    <contour>
      <point x="138" y="0" type="line"/>
      <point x="440" y="0" type="line"/>
      <point x="440" y="615" type="line" smooth="yes"/>
      <point x="440" y="746"/>
      <point x="517" y="834"/>
      <point x="632" y="834" type="curve" smooth="yes"/>
      <point x="733" y="834"/>
      <point x="784" y="769"/>
      <point x="784" y="654" type="curve" smooth="yes"/>
      <point x="784" y="0" type="line"/>
      <point x="1086" y="0" type="line"/>
      <point x="1086" y="720" type="line" smooth="yes"/>
      <point x="1086" y="944"/>
      <point x="967" y="1086"/>
      <point x="772" y="1086" type="curve" smooth="yes"/>
      <point x="629" y="1086"/>
      <point x="513" y="1016"/>
      <point x="434" y="892" type="curve"/>
      <point x="425" y="892" type="line"/>
      <point x="425" y="1052" type="line"/>
      <point x="138" y="1052" type="line"/>
    </contour>
  </outline>
</glyph>
<glyph name="o" format="2">
  <advance width="1200"/>
  <unicode hex="006F"/>
  <anchor x="600" y="-34" name="bottom"/>
  <anchor x="845" y="23" name="ogonek"/>
  <anchor x="600" y="1052" name="top"/>
  <outline>
    <contour>
      <point x="600" y="-34" type="curve" smooth="yes"/>
      <point x="906" y="-34"/>
      <point x="1122" y="195"/>
      <point x="1122" y="515" type="curve" smooth="yes"/>
      <point x="1122" y="537" type="line" smooth="yes"/>
      <point x="1122" y="857"/>
      <point x="906" y="1086"/>
      <point x="600" y="1086" type="curve" smooth="yes"/>
      <point x="294" y="1086"/>
      <point x="78" y="857"/>
      <point x="78" y="537" type="curve" smooth="yes"/>
      <point x="78" y="515" type="line" smooth="yes"/>
      <point x="78" y="195"/>
      <point x="294" y="-34"/>
    </contour>
    <contour>
      <point x="600" y="232" type="curve" smooth="yes"/>
      <point x="465" y="232"/>
      <point x="378" y="344"/>
      <point x="378" y="519" type="curve" smooth="yes"/>
      <point x="378" y="533" type="line" smooth="yes"/>
      <point x="378" y="708"/>
      <point x="465" y="820"/>
      <point x="600" y="820" type="curve" smooth="yes"/>
      <point x="735" y="820"/>
      <point x="822" y="708"/>
      <point x="822" y="533" type="curve" smooth="yes"/>
      <point x="822" y="519" type="line" smooth="yes"/>
      <point x="822" y="344"/>
      <point x="735" y="232"/>
    </contour>
  </outline>
</glyph>
<glyph name="r" format="2">
  <advance width="1200"/>
  <unicode hex="0072"/>
  <anchor x="650" y="1052" name="top"/>
  <outline>
    <contour>
      <point x="297" y="110" type="line"/>
      <point x="590" y="110" type="line"/>
      <point x="590" y="540" type="line" smooth="yes"/>
      <point x="590" y="721"/>
      <point x="666" y="818"/>
      <point x="807" y="818" type="curve" smooth="yes"/>
      <point x="877" y="818"/>
      <point x="925" y="795"/>
      <point x="987" y="730" type="curve"/>
      <point x="1170" y="949" type="line"/>
      <point x="1084" y="1047"/>
      <point x="1008" y="1086"/>
      <point x="902" y="1086" type="curve" smooth="yes"/>
      <point x="746" y="1086"/>
      <point x="626" y="989"/>
      <point x="564" y="812" type="curve"/>
      <point x="550" y="812" type="line"/>
      <point x="550" y="1052" type="line"/>
      <point x="297" y="1052" type="line"/>
    </contour>
    <contour>
      <point x="84" y="0" type="line"/>
      <point x="930" y="0" type="line"/>
      <point x="930" y="226" type="line"/>
      <point x="84" y="226" type="line"/>
    </contour>
    <contour>
      <point x="104" y="826" type="line"/>
      <point x="431" y="826" type="line"/>
      <point x="431" y="1052" type="line"/>
      <point x="104" y="1052" type="line"/>
    </contour>
  </outline>
</glyph>
<glyph name="t" format="2">
  <advance width="1200"/>
  <unicode hex="0074"/>
  <anchor x="706" y="-34" name="bottom"/>
  <outline>
    <contour>
      <point x="782" y="-34" type="curve" smooth="yes"/>
      <point x="914" y="-34"/>
      <point x="1027" y="6"/>
      <point x="1118" y="84" type="curve"/>
      <point x="974" y="306" type="line"/>
      <point x="920" y="257"/>
      <point x="870" y="236"/>
      <point x="811" y="236" type="curve" smooth="yes"/>
      <point x="700" y="236"/>
      <point x="646" y="301"/>
      <point x="646" y="433" type="curve" smooth="yes"/>
      <point x="646" y="1326" type="line"/>
      <point x="344" y="1326" type="line"/>
      <point x="344" y="413" type="line" smooth="yes"/>
      <point x="344" y="128"/>
      <point x="502" y="-34"/>
    </contour>
    <contour>
      <point x="96" y="824" type="line"/>
      <point x="1056" y="824" type="line"/>
      <point x="1056" y="1052" type="line"/>
      <point x="96" y="1052" type="line"/>
    </contour>
  </outline>
</glyph>
<glyph name="u" format="2">
  <advance width="1200"/>
  <unicode hex="0075"/>
  <anchor x="616" y="-34" name="bottom"/>
  <anchor x="1053" y="0" name="ogonek"/>
  <anchor x="596" y="1052" name="top"/>
  <outline>
    <contour>
      <point x="451" y="-34" type="curve" smooth="yes"/>
      <point x="589" y="-34"/>
      <point x="692" y="46"/>
      <point x="756" y="160" type="curve"/>
      <point x="766" y="160" type="line"/>
      <point x="766" y="0" type="line"/>
      <point x="1053" y="0" type="line"/>
      <point x="1053" y="1052" type="line"/>
      <point x="751" y="1052" type="line"/>
      <point x="751" y="438" type="line" smooth="yes"/>
      <point x="751" y="303"/>
      <point x="687" y="219"/>
      <point x="588" y="219" type="curve" smooth="yes"/>
      <point x="495" y="219"/>
      <point x="441" y="282"/>
      <point x="441" y="394" type="curve" smooth="yes"/>
      <point x="441" y="1052" type="line"/>
      <point x="139" y="1052" type="line"/>
      <point x="139" y="325" type="line" smooth="yes"/>
      <point x="139" y="103"/>
      <point x="256" y="-34"/>
    </contour>
  </outline>
</glyph>
<glyph name="x" format="2">
  <advance width="1200"/>
  <unicode hex="0078"/>
  <outline>
    <contour>
      <point x="808" y="0" type="line"/>
      <point x="1132" y="0" type="line"/>
      <point x="718" y="621" type="line"/>
      <point x="674" y="639" type="line"/>
      <point x="407" y="1052" type="line"/>
      <point x="82" y="1052" type="line"/>
      <point x="457" y="493" type="line"/>
      <point x="502" y="475" type="line"/>
    </contour>
    <contour>
      <point x="68" y="0" type="line"/>
      <point x="378" y="0" type="line"/>
      <point x="682" y="460" type="line"/>
      <point x="722" y="471" type="line"/>
      <point x="1118" y="1052" type="line"/>
      <point x="808" y="1052" type="line"/>
      <point x="516" y="611" type="line"/>
      <point x="477" y="601" type="line"/>
    </contour>
  </outline>
</glyph>
<glyph name="braceright" format="2">
  <advance width="1200"/>
  <unicode hex="007D"/>
  <outline>
    <contour>
      <point x="403" y="-332" type="curve" smooth="yes"/>
      <point x="664" y="-332"/>
      <point x="806" y="-240"/>
      <point x="806" y="-71" type="curve" smooth="yes"/>
      <point x="806" y="7"/>
      <point x="778" y="69"/>
      <point x="705" y="150" type="curve" smooth="yes"/>
      <point x="681" y="177" type="line" smooth="yes"/>
      <point x="630" y="234"/>
      <point x="613" y="266"/>
      <point x="613" y="305" type="curve" smooth="yes"/>
      <point x="613" y="359"/>
      <point x="654" y="390"/>
      <point x="739" y="400" type="curve" smooth="yes"/>
      <point x="1128" y="448" type="line"/>
      <point x="1128" y="881" type="line"/>
      <point x="739" y="929" type="line" smooth="yes"/>
      <point x="654" y="939"/>
      <point x="613" y="970"/>
      <point x="613" y="1024" type="curve" smooth="yes"/>
      <point x="613" y="1063"/>
      <point x="630" y="1095"/>
      <point x="681" y="1152" type="curve" smooth="yes"/>
      <point x="705" y="1179" type="line" smooth="yes"/>
      <point x="778" y="1260"/>
      <point x="806" y="1322"/>
      <point x="806" y="1400" type="curve" smooth="yes"/>
      <point x="806" y="1569"/>
      <point x="664" y="1661"/>
      <point x="403" y="1661" type="curve" smooth="yes"/>
      <point x="307" y="1661"/>
      <point x="217" y="1653"/>
      <point x="124" y="1637" type="curve"/>
      <point x="124" y="1384" type="line"/>
      <point x="187" y="1397"/>
      <point x="251" y="1403"/>
      <point x="320" y="1403" type="curve" smooth="yes"/>
      <point x="429" y="1403"/>
      <point x="481" y="1373"/>
      <point x="481" y="1310" type="curve" smooth="yes"/>
      <point x="481" y="1273"/>
      <point x="463" y="1241"/>
      <point x="403" y="1171" type="curve" smooth="yes"/>
      <point x="385" y="1150" type="line" smooth="yes"/>
      <point x="315" y="1069"/>
      <point x="288" y="1011"/>
      <point x="288" y="942" type="curve" smooth="yes"/>
      <point x="288" y="826"/>
      <point x="378" y="753"/>
      <point x="539" y="740" type="curve" smooth="yes"/>
      <point x="878" y="712" type="line"/>
      <point x="878" y="617" type="line"/>
      <point x="539" y="589" type="line" smooth="yes"/>
      <point x="378" y="576"/>
      <point x="288" y="503"/>
      <point x="288" y="387" type="curve" smooth="yes"/>
      <point x="288" y="318"/>
      <point x="315" y="260"/>
      <point x="385" y="179" type="curve" smooth="yes"/>
      <point x="403" y="158" type="line" smooth="yes"/>
      <point x="463" y="88"/>
      <point x="481" y="56"/>
      <point x="481" y="19" type="curve" smooth="yes"/>
      <point x="481" y="-44"/>
      <point x="429" y="-74"/>
      <point x="320" y="-74" type="curve" smooth="yes"/>
      <point x="251" y="-74"/>
      <point x="187" y="-68"/>
      <point x="124" y="-55" type="curve"/>
      <point x="124" y="-308" type="line"/>
      <point x="217" y="-324"/>
      <point x="307" y="-332"/>
    </contour>
  </outline>
</glyph>
<glyph name="asciitilde" format="2">
  <advance width="1200"/>
  <unicode hex="007E"/>
  <outline>
    <contour>
      <point x="844" y="551" type="curve" smooth="yes"/>
      <point x="1030" y="551"/>
      <point x="1130" y="678"/>
      <point x="1130" y="917" type="curve" smooth="yes"/>
      <point x="1130" y="1025" type="line"/>
      <point x="848" y="1025" type="line"/>
      <point x="848" y="936" type="line" smooth="yes"/>
      <point x="848" y="866"/>
      <point x="820" y="829"/>
      <point x="767" y="829" type="curve" smooth="yes"/>
      <point x="728" y="829"/>
      <point x="695" y="847"/>
      <point x="630" y="904" type="curve" smooth="yes"/>
      <point x="528" y="994"/>
      <point x="459" y="1030"/>
      <point x="364" y="1030" type="curve" smooth="yes"/>
      <point x="173" y="1030"/>
      <point x="70" y="903"/>
      <point x="70" y="665" type="curve" smooth="yes"/>
      <point x="70" y="556" type="line"/>
      <point x="352" y="556" type="line"/>
      <point x="352" y="646" type="line" smooth="yes"/>
      <point x="352" y="715"/>
      <point x="380" y="752"/>
      <point x="434" y="752" type="curve" smooth="yes"/>
      <point x="473" y="752"/>
      <point x="505" y="735"/>
      <point x="570" y="678" type="curve" smooth="yes"/>
      <point x="677" y="585"/>
      <point x="749" y="551"/>
    </contour>
  </outline>
</glyph>
<glyph name="sterling" format="2">
  <advance width="1200"/>
  <unicode hex="00A3"/>
  <outline>
    <contour>
      <point x="291" y="-14" type="line"/>
      <point x="329" y="55"/>
      <point x="382" y="88"/>
      <point x="458" y="88" type="curve" smooth="yes"/>
      <point x="586" y="88"/>
      <point x="704" y="0"/>
      <point x="849" y="0" type="curve" smooth="yes"/>
      <point x="1019" y="0"/>
      <point x="1112" y="121"/>
      <point x="1169" y="317" type="curve"/>
      <point x="900" y="397" type="line"/>
      <point x="869" y="302"/>
      <point x="840" y="268"/>
      <point x="771" y="268" type="curve" smooth="yes"/>
      <point x="691" y="268"/>
      <point x="620" y="329"/>
      <point x="517" y="331" type="curve"/>
      <point x="517" y="347" type="line"/>
      <point x="618" y="391"/>
      <point x="657" y="442"/>
      <point x="657" y="536" type="curve" smooth="yes"/>
      <point x="657" y="679"/>
      <point x="544" y="847"/>
      <point x="544" y="1022" type="curve" smooth="yes"/>
      <point x="544" y="1131"/>
      <point x="614" y="1198"/>
      <point x="724" y="1198" type="curve" smooth="yes"/>
      <point x="802" y="1198"/>
      <point x="852" y="1171"/>
      <point x="918" y="1109" type="curve"/>
      <point x="1092" y="1314" type="line"/>
      <point x="975" y="1422"/>
      <point x="861" y="1466"/>
      <point x="697" y="1466" type="curve" smooth="yes"/>
      <point x="420" y="1466"/>
      <point x="235" y="1298"/>
      <point x="235" y="1055" type="curve" smooth="yes"/>
      <point x="235" y="845"/>
      <point x="375" y="687"/>
      <point x="375" y="516" type="curve" smooth="yes"/>
      <point x="375" y="434"/>
      <point x="345" y="389"/>
      <point x="259" y="335" type="curve" smooth="yes"/>
      <point x="171" y="280"/>
      <point x="110" y="213"/>
      <point x="55" y="113" type="curve"/>
    </contour>
    <contour>
      <point x="65" y="668" type="line"/>
      <point x="980" y="668" type="line"/>
      <point x="980" y="872" type="line"/>
      <point x="65" y="872" type="line"/>
    </contour>
  </outline>
</glyph>
<glyph name="section" format="2">
  <advance width="1200"/>
  <unicode hex="00A7"/>
  <outline>
    <contour>
      <point x="809" y="232" type="line"/>
      <point x="996" y="296"/>
      <point x="1102" y="423"/>
      <point x="1102" y="584" type="curve" smooth="yes"/>
      <point x="1102" y="767"/>
      <point x="1015" y="871"/>
      <point x="800" y="941" type="curve" smooth="yes"/>
      <point x="614" y="1002" type="line" smooth="yes"/>
      <point x="524" y="1032"/>
      <point x="493" y="1062"/>
      <point x="493" y="1116" type="curve" smooth="yes"/>
      <point x="493" y="1178"/>
      <point x="546" y="1214"/>
      <point x="636" y="1214" type="curve" smooth="yes"/>
      <point x="736" y="1214"/>
      <point x="803" y="1178"/>
      <point x="853" y="1097" type="curve"/>
      <point x="1060" y="1254" type="line"/>
      <point x="977" y="1394"/>
      <point x="840" y="1466"/>
      <point x="658" y="1466" type="curve" smooth="yes"/>
      <point x="403" y="1466"/>
      <point x="227" y="1322"/>
      <point x="227" y="1112" type="curve" smooth="yes"/>
      <point x="227" y="956"/>
      <point x="330" y="819"/>
      <point x="490" y="767" type="curve" smooth="yes"/>
      <point x="723" y="691" type="line" smooth="yes"/>
      <point x="811" y="662"/>
      <point x="842" y="627"/>
      <point x="842" y="558" type="curve" smooth="yes"/>
      <point x="842" y="479"/>
      <point x="794" y="417"/>
      <point x="692" y="364" type="curve"/>
    </contour>
    <contour>
      <point x="575" y="-216" type="curve" smooth="yes"/>
      <point x="812" y="-216"/>
      <point x="973" y="-75"/>
      <point x="973" y="132" type="curve" smooth="yes"/>
      <point x="973" y="295"/>
      <point x="874" y="428"/>
      <point x="709" y="482" type="curve" smooth="yes"/>
      <point x="476" y="558" type="line" smooth="yes"/>
      <point x="394" y="585"/>
      <point x="358" y="625"/>
      <point x="358" y="692" type="curve" smooth="yes"/>
      <point x="358" y="761"/>
      <point x="396" y="812"/>
      <point x="477" y="850" type="curve"/>
      <point x="391" y="1016" type="line"/>
      <point x="203" y="951"/>
      <point x="98" y="823"/>
      <point x="98" y="659" type="curve" smooth="yes"/>
      <point x="98" y="490"/>
      <point x="199" y="375"/>
      <point x="400" y="308" type="curve" smooth="yes"/>
      <point x="586" y="246" type="line" smooth="yes"/>
      <point x="678" y="215"/>
      <point x="707" y="187"/>
      <point x="707" y="132" type="curve" smooth="yes"/>
      <point x="707" y="70"/>
      <point x="659" y="36"/>
      <point x="574" y="36" type="curve" smooth="yes"/>
      <point x="475" y="36"/>
      <point x="406" y="73"/>
      <point x="349" y="157" type="curve"/>
      <point x="140" y="2" type="line"/>
      <point x="232" y="-140"/>
      <point x="383" y="-216"/>
    </contour>
  </outline>
</glyph>
<glyph name="ordfeminine" format="2">
  <advance width="1200"/>
  <unicode hex="00AA"/>
  <outline>
    <contour>
      <point x="442" y="551" type="curve" smooth="yes"/>
      <point x="554" y="551"/>
      <point x="647" y="605"/>
      <point x="710" y="705" type="curve"/>
      <point x="724" y="705" type="line"/>
      <point x="724" y="567" type="line"/>
      <point x="974" y="567" type="line"/>
      <point x="974" y="1096" type="line" smooth="yes"/>
      <point x="974" y="1344"/>
      <point x="847" y="1466"/>
      <point x="574" y="1466" type="curve" smooth="yes"/>
      <point x="432" y="1466"/>
      <point x="300" y="1443"/>
      <point x="182" y="1397" type="curve"/>
      <point x="256" y="1198" type="line"/>
      <point x="338" y="1236"/>
      <point x="427" y="1262"/>
      <point x="524" y="1262" type="curve" smooth="yes"/>
      <point x="664" y="1262"/>
      <point x="714" y="1211"/>
      <point x="714" y="1082" type="curve" smooth="yes"/>
      <point x="714" y="878" type="line" smooth="yes"/>
      <point x="714" y="783"/>
      <point x="651" y="721"/>
      <point x="550" y="721" type="curve" smooth="yes"/>
      <point x="461" y="721"/>
      <point x="422" y="753"/>
      <point x="422" y="827" type="curve" smooth="yes"/>
      <point x="422" y="841" type="line" smooth="yes"/>
      <point x="422" y="918"/>
      <point x="467" y="952"/>
      <point x="564" y="952" type="curve" smooth="yes"/>
      <point x="629" y="952"/>
      <point x="673" y="942"/>
      <point x="726" y="917" type="curve"/>
      <point x="726" y="1026" type="line"/>
      <point x="649" y="1078"/>
      <point x="563" y="1104"/>
      <point x="465" y="1104" type="curve" smooth="yes"/>
      <point x="272" y="1104"/>
      <point x="146" y="995"/>
      <point x="146" y="827" type="curve" smooth="yes"/>
      <point x="146" y="816" type="line" smooth="yes"/>
      <point x="146" y="660"/>
      <point x="268" y="551"/>
    </contour>
  </outline>
</glyph>
<glyph name="registered" format="2">
  <advance width="1200"/>
  <unicode hex="00AE"/>
  <outline>
    <contour>
      <point x="600" y="-30" type="curve" smooth="yes"/>
      <point x="961" y="-30"/>
      <point x="1192" y="237"/>
      <point x="1192" y="654" type="curve" smooth="yes"/>
      <point x="1192" y="782" type="line" smooth="yes"/>
      <point x="1192" y="1199"/>
      <point x="961" y="1466"/>
      <point x="600" y="1466" type="curve" smooth="yes"/>
      <point x="239" y="1466"/>
      <point x="8" y="1199"/>
      <point x="8" y="782" type="curve" smooth="yes"/>
      <point x="8" y="654" type="line" smooth="yes"/>
      <point x="8" y="237"/>
      <point x="239" y="-30"/>
    </contour>
    <contour>
      <point x="748" y="294" type="line"/>
      <point x="934" y="294" type="line"/>
      <point x="934" y="303" type="line"/>
      <point x="729" y="667" type="line"/>
      <point x="548" y="667" type="line"/>
    </contour>
    <contour>
      <point x="600" y="60" type="curve" smooth="yes"/>
      <point x="292" y="60"/>
      <point x="108" y="282"/>
      <point x="108" y="653" type="curve" smooth="yes"/>
      <point x="108" y="783" type="line" smooth="yes"/>
      <point x="108" y="1154"/>
      <point x="292" y="1376"/>
      <point x="600" y="1376" type="curve" smooth="yes"/>
      <point x="908" y="1376"/>
      <point x="1092" y="1154"/>
      <point x="1092" y="783" type="curve" smooth="yes"/>
      <point x="1092" y="653" type="line" smooth="yes"/>
      <point x="1092" y="282"/>
      <point x="908" y="60"/>
    </contour>
    <contour>
      <point x="326" y="294" type="line"/>
      <point x="489" y="294" type="line"/>
      <point x="489" y="991" type="line"/>
      <point x="602" y="991" type="line" smooth="yes"/>
      <point x="690" y="991"/>
      <point x="740" y="949"/>
      <point x="740" y="877" type="curve" smooth="yes"/>
      <point x="740" y="860" type="line" smooth="yes"/>
      <point x="740" y="789"/>
      <point x="690" y="745"/>
      <point x="602" y="745" type="curve" smooth="yes"/>
      <point x="426" y="745" type="line"/>
      <point x="426" y="601" type="line"/>
      <point x="605" y="601" type="line" smooth="yes"/>
      <point x="790" y="601"/>
      <point x="904" y="705"/>
      <point x="904" y="870" type="curve" smooth="yes"/>
      <point x="904" y="879" type="line" smooth="yes"/>
      <point x="904" y="1045"/>
      <point x="791" y="1146"/>
      <point x="606" y="1146" type="curve" smooth="yes"/>
      <point x="326" y="1146" type="line"/>
    </contour>
  </outline>
</glyph>
<glyph name="degree" format="2">
  <advance width="1200"/>
  <unicode hex="00B0"/>
  <outline>
    <contour>
      <point x="587" y="699" type="curve" smooth="yes"/>
      <point x="814" y="699"/>
      <point x="984" y="863"/>
      <point x="984" y="1082" type="curve" smooth="yes"/>
      <point x="984" y="1302"/>
      <point x="814" y="1466"/>
      <point x="587" y="1466" type="curve" smooth="yes"/>
      <point x="360" y="1466"/>
      <point x="190" y="1302"/>
      <point x="190" y="1082" type="curve" smooth="yes"/>
      <point x="190" y="863"/>
      <point x="360" y="699"/>
    </contour>
    <contour>
      <point x="587" y="925" type="curve" smooth="yes"/>
      <point x="497" y="925"/>
      <point x="434" y="990"/>
      <point x="434" y="1082" type="curve" smooth="yes"/>
      <point x="434" y="1175"/>
      <point x="497" y="1240"/>
      <point x="587" y="1240" type="curve" smooth="yes"/>
      <point x="677" y="1240"/>
      <point x="740" y="1175"/>
      <point x="740" y="1082" type="curve" smooth="yes"/>
      <point x="740" y="990"/>
      <point x="677" y="925"/>
    </contour>
  </outline>
</glyph>
<glyph name="plusminus" format="2">
  <advance width="1200"/>
  <unicode hex="00B1"/>
  <outline>
    <contour>
      <point x="108" y="0" type="line"/>
      <point x="1092" y="0" type="line"/>
      <point x="1092" y="276" type="line"/>
      <point x="108" y="276" type="line"/>
    </contour>
    <contour>
      <point x="106" y="680" type="line"/>
      <point x="1094" y="680" type="line"/>
      <point x="1094" y="954" type="line"/>
      <point x="106" y="954" type="line"/>
    </contour>
    <contour>
      <point x="454" y="376" type="line"/>
      <point x="746" y="376" type="line"/>
      <point x="746" y="1258" type="line"/>
      <point x="454" y="1258" type="line"/>
    </contour>
  </outline>
</glyph>
<glyph name="threesuperior" format="2">
  <advance width="1200"/>
  <unicode hex="00B3"/>
  <outline>
    <contour>
      <point x="604" y="677" type="curve" smooth="yes"/>
      <point x="826" y="677"/>
      <point x="974" y="791"/>
      <point x="974" y="961" type="curve" smooth="yes"/>
      <point x="974" y="965" type="line" smooth="yes"/>
      <point x="974" y="1091"/>
      <point x="905" y="1177"/>
      <point x="781" y="1207" type="curve"/>
      <point x="781" y="1220" type="line"/>
      <point x="890" y="1257"/>
      <point x="949" y="1334"/>
      <point x="949" y="1442" type="curve" smooth="yes"/>
      <point x="949" y="1449" type="line" smooth="yes"/>
      <point x="949" y="1613"/>
      <point x="813" y="1723"/>
      <point x="609" y="1723" type="curve" smooth="yes"/>
      <point x="408" y="1723"/>
      <point x="261" y="1632"/>
      <point x="197" y="1467" type="curve"/>
      <point x="456" y="1381" type="line"/>
      <point x="476" y="1438"/>
      <point x="522" y="1471"/>
      <point x="583" y="1471" type="curve" smooth="yes"/>
      <point x="639" y="1471"/>
      <point x="673" y="1442"/>
      <point x="673" y="1391" type="curve" smooth="yes"/>
      <point x="673" y="1384" type="line" smooth="yes"/>
      <point x="673" y="1329"/>
      <point x="630" y="1299"/>
      <point x="554" y="1299" type="curve" smooth="yes"/>
      <point x="444" y="1299" type="line"/>
      <point x="444" y="1111" type="line"/>
      <point x="577" y="1111" type="line" smooth="yes"/>
      <point x="659" y="1111"/>
      <point x="698" y="1081"/>
      <point x="698" y="1020" type="curve" smooth="yes"/>
      <point x="698" y="1013" type="line" smooth="yes"/>
      <point x="698" y="961"/>
      <point x="656" y="929"/>
      <point x="588" y="929" type="curve" smooth="yes"/>
      <point x="508" y="929"/>
      <point x="453" y="967"/>
      <point x="427" y="1042" type="curve"/>
      <point x="172" y="943" type="line"/>
      <point x="231" y="768"/>
      <point x="380" y="677"/>
    </contour>
  </outline>
</glyph>
<glyph name="paragraph" format="2">
  <advance width="1200"/>
  <unicode hex="00B6"/>
  <guideline x="780" y="454" angle="0"/>
  <guideline x="-792" y="-408" angle="0"/>
  <outline>
    <contour>
      <point x="495" y="-408" type="line"/>
      <point x="731" y="-408" type="line"/>
      <point x="731" y="1432" type="line"/>
      <point x="541" y="1432" type="line" smooth="yes"/>
      <point x="217" y="1432"/>
      <point x="42" y="1271"/>
      <point x="42" y="1008" type="curve" smooth="yes"/>
      <point x="42" y="998" type="line" smooth="yes"/>
      <point x="42" y="734"/>
      <point x="217" y="573"/>
      <point x="541" y="573" type="curve" smooth="yes"/>
      <point x="588" y="573" type="line"/>
      <point x="495" y="636" type="line"/>
    </contour>
    <contour>
      <point x="873" y="-408" type="line"/>
      <point x="1108" y="-408" type="line"/>
      <point x="1108" y="1432" type="line"/>
      <point x="873" y="1432" type="line"/>
    </contour>
  </outline>
</glyph>
<glyph name="onesuperior" format="2">
  <advance width="1200"/>
  <unicode hex="00B9"/>
  <outline>
    <contour>
      <point x="484" y="815" type="line"/>
      <point x="760" y="815" type="line"/>
      <point x="760" y="1713" type="line"/>
      <point x="586" y="1713" type="line"/>
      <point x="172" y="1544" type="line"/>
      <point x="272" y="1310" type="line"/>
      <point x="484" y="1400" type="line"/>
    </contour>
    <contour>
      <point x="215" y="687" type="line"/>
      <point x="1000" y="687" type="line"/>
      <point x="1000" y="941" type="line"/>
      <point x="215" y="941" type="line"/>
    </contour>
  </outline>
</glyph>
<glyph name="ordmasculine" format="2">
  <advance width="1200"/>
  <unicode hex="00BA"/>
  <outline>
    <contour>
      <point x="550" y="576" type="curve" smooth="yes"/>
      <point x="807" y="576"/>
      <point x="992" y="757"/>
      <point x="992" y="1005" type="curve" smooth="yes"/>
      <point x="992" y="1038" type="line" smooth="yes"/>
      <point x="992" y="1285"/>
      <point x="807" y="1466"/>
      <point x="550" y="1466" type="curve" smooth="yes"/>
      <point x="293" y="1466"/>
      <point x="108" y="1285"/>
      <point x="108" y="1038" type="curve" smooth="yes"/>
      <point x="108" y="1005" type="line" smooth="yes"/>
      <point x="108" y="757"/>
      <point x="293" y="576"/>
    </contour>
    <contour>
      <point x="550" y="820" type="curve" smooth="yes"/>
      <point x="443" y="820"/>
      <point x="384" y="897"/>
      <point x="384" y="1009" type="curve" smooth="yes"/>
      <point x="384" y="1033" type="line" smooth="yes"/>
      <point x="384" y="1144"/>
      <point x="443" y="1222"/>
      <point x="550" y="1222" type="curve" smooth="yes"/>
      <point x="656" y="1222"/>
      <point x="716" y="1144"/>
      <point x="716" y="1033" type="curve" smooth="yes"/>
      <point x="716" y="1009" type="line" smooth="yes"/>
      <point x="716" y="897"/>
      <point x="656" y="820"/>
    </contour>
  </outline>
</glyph>
<glyph name="AE" format="2">
  <advance width="1200"/>
  <unicode hex="00C6"/>
  <anchor x="737" y="1432" name="top"/>
  <outline>
    <contour>
      <point x="4" y="0" type="line"/>
      <point x="302" y="0" type="line"/>
      <point x="495" y="875" type="line"/>
      <point x="543" y="1168" type="line"/>
      <point x="703" y="1168" type="line"/>
      <point x="717" y="1432" type="line"/>
      <point x="355" y="1432" type="line"/>
    </contour>
    <contour>
      <point x="194" y="284" type="line"/>
      <point x="697" y="284" type="line"/>
      <point x="697" y="520" type="line"/>
      <point x="266" y="520" type="line"/>
    </contour>
    <contour>
      <point x="612" y="0" type="line"/>
      <point x="1195" y="0" type="line"/>
      <point x="1195" y="277" type="line"/>
      <point x="852" y="277" type="line"/>
      <point x="852" y="1155" type="line"/>
      <point x="1179" y="1155" type="line"/>
      <point x="1179" y="1432" type="line"/>
      <point x="612" y="1432" type="line"/>
    </contour>
    <contour>
      <point x="751" y="594" type="line"/>
      <point x="1133" y="594" type="line"/>
      <point x="1133" y="867" type="line"/>
      <point x="751" y="867" type="line"/>
    </contour>
  </outline>
</glyph>
<glyph name="multiply" format="2">
  <advance width="1200"/>
  <unicode hex="00D7"/>
  <outline>
    <contour>
      <point x="316" y="156" type="line"/>
      <point x="1084" y="925" type="line"/>
      <point x="885" y="1125" type="line"/>
      <point x="116" y="355" type="line"/>
    </contour>
    <contour>
      <point x="885" y="156" type="line"/>
      <point x="1084" y="355" type="line"/>
      <point x="316" y="1125" type="line"/>
      <point x="116" y="925" type="line"/>
    </contour>
  </outline>
</glyph>
<glyph name="Oslash" format="2">
  <advance width="1200"/>
  <unicode hex="00D8"/>
  <guideline x="1144" y="694" angle="90"/>
  <outline>
    <contour>
      <point x="205" y="-217" type="line"/>
      <point x="1172" y="1554" type="line"/>
      <point x="995" y="1649" type="line"/>
      <point x="28" y="-122" type="line"/>
    </contour>
    <contour>
      <point x="608" y="-34" type="curve" smooth="yes"/>
      <point x="946" y="-34"/>
      <point x="1148" y="240"/>
      <point x="1148" y="694" type="curve" smooth="yes"/>
      <point x="1148" y="738" type="line" smooth="yes"/>
      <point x="1148" y="1175"/>
      <point x="921" y="1466"/>
      <point x="592" y="1466" type="curve" smooth="yes"/>
      <point x="255" y="1466"/>
      <point x="52" y="1193"/>
      <point x="52" y="738" type="curve" smooth="yes"/>
      <point x="52" y="694" type="line" smooth="yes"/>
      <point x="52" y="258"/>
      <point x="279" y="-34"/>
    </contour>
    <contour>
      <point x="584" y="232" type="curve" smooth="yes"/>
      <point x="400" y="232"/>
      <point x="336" y="360"/>
      <point x="336" y="665" type="curve" smooth="yes"/>
      <point x="336" y="751" type="line" smooth="yes"/>
      <point x="336" y="1049"/>
      <point x="433" y="1200"/>
      <point x="616" y="1200" type="curve" smooth="yes"/>
      <point x="800" y="1200"/>
      <point x="864" y="1072"/>
      <point x="864" y="767" type="curve" smooth="yes"/>
      <point x="864" y="681" type="line" smooth="yes"/>
      <point x="864" y="383"/>
      <point x="768" y="232"/>
    </contour>
  </outline>
</glyph>
<glyph name="Thorn" format="2">
  <advance width="1200"/>
  <unicode hex="00DE"/>
  <outline>
    <contour>
      <point x="308" y="281" type="line"/>
      <point x="596" y="281" type="line" smooth="yes"/>
      <point x="913" y="281"/>
      <point x="1110" y="461"/>
      <point x="1110" y="749" type="curve" smooth="yes"/>
      <point x="1110" y="757" type="line" smooth="yes"/>
      <point x="1110" y="1046"/>
      <point x="913" y="1225"/>
      <point x="596" y="1225" type="curve" smooth="yes"/>
      <point x="308" y="1225" type="line"/>
      <point x="308" y="953" type="line"/>
      <point x="594" y="953" type="line" smooth="yes"/>
      <point x="730" y="953"/>
      <point x="810" y="883"/>
      <point x="810" y="765" type="curve" smooth="yes"/>
      <point x="810" y="741" type="line" smooth="yes"/>
      <point x="810" y="623"/>
      <point x="730" y="553"/>
      <point x="594" y="553" type="curve" smooth="yes"/>
      <point x="308" y="553" type="line"/>
    </contour>
    <contour>
      <point x="123" y="0" type="line"/>
      <point x="427" y="0" type="line"/>
      <point x="427" y="1432" type="line"/>
      <point x="123" y="1432" type="line"/>
    </contour>
  </outline>
</glyph>
<glyph name="germandbls" format="2">
  <advance width="1200"/>
  <unicode hex="00DF"/>
  <outline>
    <contour>
      <point x="758" y="-34" type="curve" smooth="yes"/>
      <point x="1006" y="-34"/>
      <point x="1166" y="112"/>
      <point x="1166" y="332" type="curve" smooth="yes"/>
      <point x="1166" y="334" type="line" smooth="yes"/>
      <point x="1166" y="482"/>
      <point x="1112" y="587"/>
      <point x="983" y="654" type="curve" smooth="yes"/>
      <point x="921" y="686" type="line" smooth="yes"/>
      <point x="850" y="722"/>
      <point x="819" y="750"/>
      <point x="819" y="794" type="curve" smooth="yes"/>
      <point x="819" y="799" type="line" smooth="yes"/>
      <point x="819" y="899"/>
      <point x="996" y="966"/>
      <point x="996" y="1157" type="curve" smooth="yes"/>
      <point x="996" y="1162" type="line" smooth="yes"/>
      <point x="996" y="1355"/>
      <point x="840" y="1494"/>
      <point x="592" y="1494" type="curve" smooth="yes"/>
      <point x="297" y="1494"/>
      <point x="112" y="1323"/>
      <point x="112" y="1038" type="curve" smooth="yes"/>
      <point x="112" y="0" type="line"/>
      <point x="412" y="0" type="line"/>
      <point x="412" y="1027" type="line" smooth="yes"/>
      <point x="412" y="1161"/>
      <point x="478" y="1238"/>
      <point x="587" y="1238" type="curve" smooth="yes"/>
      <point x="673" y="1238"/>
      <point x="719" y="1188"/>
      <point x="719" y="1115" type="curve" smooth="yes"/>
      <point x="719" y="1113" type="line" smooth="yes"/>
      <point x="719" y="980"/>
      <point x="531" y="919"/>
      <point x="531" y="734" type="curve" smooth="yes"/>
      <point x="531" y="732" type="line" smooth="yes"/>
      <point x="531" y="646"/>
      <point x="575" y="583"/>
      <point x="665" y="537" type="curve" smooth="yes"/>
      <point x="727" y="505" type="line" smooth="yes"/>
      <point x="842" y="446"/>
      <point x="878" y="404"/>
      <point x="878" y="341" type="curve" smooth="yes"/>
      <point x="878" y="335" type="line" smooth="yes"/>
      <point x="878" y="261"/>
      <point x="820" y="222"/>
      <point x="733" y="222" type="curve" smooth="yes"/>
      <point x="677" y="222"/>
      <point x="632" y="232"/>
      <point x="587" y="251" type="curve"/>
      <point x="495" y="10" type="line"/>
      <point x="575" y="-19"/>
      <point x="654" y="-34"/>
    </contour>
  </outline>
</glyph>
<glyph name="eogonek" format="2">
  <advance width="1200"/>
  <unicode hex="0119"/>
  <outline>
    <contour>
      <point x="761" y="-547" type="curve" smooth="yes"/>
      <point x="841" y="-547"/>
      <point x="908" y="-529"/>
      <point x="974" y="-491" type="curve"/>
      <point x="907" y="-303" type="line"/>
      <point x="874" y="-320"/>
      <point x="845" y="-327"/>
      <point x="809" y="-327" type="curve" smooth="yes"/>
      <point x="743" y="-327"/>
      <point x="695" y="-283"/>
      <point x="695" y="-219" type="curve" smooth="yes"/>
      <point x="695" y="-145"/>
      <point x="734" y="-92"/>
      <point x="854" y="-12" type="curve" smooth="yes"/>
      <point x="984" y="74"/>
      <point x="1054" y="153"/>
      <point x="1095" y="245" type="curve"/>
      <point x="838" y="352" type="line"/>
      <point x="795" y="256"/>
      <point x="728" y="210"/>
      <point x="631" y="210" type="curve" smooth="yes"/>
      <point x="473" y="210"/>
      <point x="376" y="328"/>
      <point x="376" y="519" type="curve" smooth="yes"/>
      <point x="376" y="533" type="line" smooth="yes"/>
      <point x="376" y="727"/>
      <point x="472" y="846"/>
      <point x="626" y="846" type="curve" smooth="yes"/>
      <point x="752" y="846"/>
      <point x="826" y="763"/>
      <point x="826" y="625" type="curve"/>
      <point x="837" y="631" type="line"/>
      <point x="245" y="631" type="line"/>
      <point x="245" y="455" type="line"/>
      <point x="1089" y="455" type="line"/>
      <point x="1098" y="494"/>
      <point x="1102" y="543"/>
      <point x="1102" y="600" type="curve" smooth="yes"/>
      <point x="1102" y="895"/>
      <point x="912" y="1086"/>
      <point x="624" y="1086" type="curve" smooth="yes"/>
      <point x="303" y="1086"/>
      <point x="88" y="867"/>
      <point x="88" y="537" type="curve" smooth="yes"/>
      <point x="88" y="515" type="line" smooth="yes"/>
      <point x="88" y="187"/>
      <point x="298" y="-27"/>
      <point x="624" y="-27" type="curve" smooth="yes"/>
      <point x="686" y="-27"/>
      <point x="743" y="-20"/>
      <point x="796" y="-4" type="curve"/>
      <point x="838" y="112" type="line"/>
      <point x="574" y="8"/>
      <point x="462" y="-113"/>
      <point x="462" y="-279" type="curve" smooth="yes"/>
      <point x="462" y="-433"/>
      <point x="590" y="-547"/>
    </contour>
  </outline>
</glyph>
<glyph name="Hbar" format="2">
  <advance width="1200"/>
  <unicode hex="0126"/>
  <outline>
    <contour>
      <point x="753" y="0" type="line"/>
      <point x="1043" y="0" type="line"/>
      <point x="1043" y="1432" type="line"/>
      <point x="753" y="1432" type="line"/>
    </contour>
    <contour>
      <point x="158" y="0" type="line"/>
      <point x="448" y="0" type="line"/>
      <point x="448" y="1432" type="line"/>
      <point x="158" y="1432" type="line"/>
    </contour>
    <contour>
      <point x="317" y="534" type="line"/>
      <point x="895" y="534" type="line"/>
      <point x="895" y="804" type="line"/>
      <point x="317" y="804" type="line"/>
    </contour>
    <contour>
      <point x="12" y="1007" type="line"/>
      <point x="1188" y="1007" type="line"/>
      <point x="1188" y="1247" type="line"/>
      <point x="12" y="1247" type="line"/>
    </contour>
  </outline>
</glyph>
<glyph name="hbar" format="2">
  <advance width="1200"/>
  <unicode hex="0127"/>
  <outline>
    <contour>
      <point x="158" y="0" type="line"/>
      <point x="460" y="0" type="line"/>
      <point x="460" y="540" type="line" smooth="yes"/>
      <point x="460" y="667"/>
      <point x="531" y="751"/>
      <point x="638" y="751" type="curve" smooth="yes"/>
      <point x="731" y="751"/>
      <point x="782" y="691"/>
      <point x="782" y="579" type="curve" smooth="yes"/>
      <point x="782" y="0" type="line"/>
      <point x="1084" y="0" type="line"/>
      <point x="1084" y="644" type="line" smooth="yes"/>
      <point x="1084" y="868"/>
      <point x="969" y="1003"/>
      <point x="777" y="1003" type="curve" smooth="yes"/>
      <point x="641" y="1003"/>
      <point x="527" y="938"/>
      <point x="445" y="816" type="curve"/>
      <point x="434" y="816" type="line"/>
      <point x="434" y="1510" type="line"/>
      <point x="158" y="1510" type="line"/>
    </contour>
    <contour>
      <point x="-16" y="1144" type="line"/>
      <point x="775" y="1144" type="line"/>
      <point x="775" y="1347" type="line"/>
      <point x="-16" y="1347" type="line"/>
    </contour>
  </outline>
</glyph>
<glyph name="IJ" format="2">
  <advance width="1200"/>
  <unicode hex="0132"/>
  <outline>
    <contour>
      <point x="613" y="-34" type="curve" smooth="yes"/>
      <point x="901" y="-34"/>
      <point x="1092" y="168"/>
      <point x="1092" y="469" type="curve" smooth="yes"/>
      <point x="1092" y="1432" type="line"/>
      <point x="782" y="1432" type="line"/>
      <point x="782" y="477" type="line" smooth="yes"/>
      <point x="782" y="342"/>
      <point x="718" y="264"/>
      <point x="606" y="264" type="curve" smooth="yes"/>
      <point x="506" y="264"/>
      <point x="440" y="320"/>
      <point x="407" y="433" type="curve"/>
      <point x="108" y="342" type="line"/>
      <point x="178" y="100"/>
      <point x="356" y="-34"/>
    </contour>
    <contour>
      <point x="108" y="615" type="line"/>
      <point x="418" y="615" type="line"/>
      <point x="418" y="1432" type="line"/>
      <point x="108" y="1432" type="line"/>
    </contour>
  </outline>
</glyph>
<glyph name="ij" format="2">
  <advance width="1200"/>
  <unicode hex="0133"/>
  <outline>
    <contour>
      <point x="683" y="-449" type="curve" smooth="yes"/>
      <point x="966" y="-449"/>
      <point x="1138" y="-275"/>
      <point x="1138" y="12" type="curve" smooth="yes"/>
      <point x="1138" y="1052" type="line"/>
      <point x="838" y="1052" type="line"/>
      <point x="838" y="2" type="line" smooth="yes"/>
      <point x="838" y="-117"/>
      <point x="778" y="-183"/>
      <point x="669" y="-183" type="curve" smooth="yes"/>
      <point x="597" y="-183"/>
      <point x="533" y="-157"/>
      <point x="460" y="-103" type="curve"/>
      <point x="315" y="-328" type="line"/>
      <point x="424" y="-407"/>
      <point x="548" y="-449"/>
    </contour>
    <contour>
      <point x="23" y="0" type="line"/>
      <point x="702" y="0" type="line"/>
      <point x="702" y="225" type="line"/>
      <point x="23" y="225" type="line"/>
    </contour>
    <contour>
      <point x="217" y="80" type="line"/>
      <point x="514" y="80" type="line"/>
      <point x="514" y="1052" type="line"/>
      <point x="217" y="1052" type="line"/>
    </contour>
    <contour>
      <point x="33" y="828" type="line"/>
      <point x="493" y="828" type="line"/>
      <point x="493" y="1052" type="line"/>
      <point x="33" y="1052" type="line"/>
    </contour>
    <contour>
      <point x="358" y="1246" type="curve" smooth="yes"/>
      <point x="472" y="1246"/>
      <point x="554" y="1332"/>
      <point x="554" y="1440" type="curve" smooth="yes"/>
      <point x="554" y="1552"/>
      <point x="472" y="1633"/>
      <point x="358" y="1633" type="curve" smooth="yes"/>
      <point x="249" y="1633"/>
      <point x="160" y="1552"/>
      <point x="160" y="1440" type="curve" smooth="yes"/>
      <point x="160" y="1332"/>
      <point x="249" y="1246"/>
    </contour>
    <contour>
      <point x="626" y="828" type="line"/>
      <point x="1061" y="828" type="line"/>
      <point x="1061" y="1052" type="line"/>
      <point x="626" y="1052" type="line"/>
    </contour>
    <contour>
      <point x="959" y="1246" type="curve" smooth="yes"/>
      <point x="1070" y="1246"/>
      <point x="1155" y="1330"/>
      <point x="1155" y="1440" type="curve" smooth="yes"/>
      <point x="1155" y="1552"/>
      <point x="1072" y="1633"/>
      <point x="959" y="1633" type="curve" smooth="yes"/>
      <point x="847" y="1633"/>
      <point x="761" y="1550"/>
      <point x="761" y="1440" type="curve" smooth="yes"/>
      <point x="761" y="1332"/>
      <point x="849" y="1246"/>
    </contour>
  </outline>
</glyph>
<glyph name="Lslash" format="2">
  <advance width="1200"/>
  <unicode hex="0141"/>
  <outline>
    <contour>
      <point x="265" y="0" type="line"/>
      <point x="1125" y="0" type="line"/>
      <point x="1125" y="290" type="line"/>
      <point x="549" y="290" type="line"/>
      <point x="549" y="1432" type="line"/>
      <point x="265" y="1432" type="line"/>
    </contour>
    <contour>
      <point x="3" y="343" type="line"/>
      <point x="289" y="518" type="line"/>
      <point x="338" y="533" type="line"/>
      <point x="958" y="901" type="line"/>
      <point x="958" y="1201" type="line"/>
      <point x="348" y="834" type="line"/>
      <point x="289" y="815" type="line"/>
      <point x="3" y="643" type="line"/>
    </contour>
  </outline>
</glyph>
<glyph name="oe" format="2">
  <advance width="1200"/>
  <unicode hex="0153"/>
  <outline>
    <contour>
      <point x="358" y="-34" type="curve" smooth="yes"/>
      <point x="516" y="-34"/>
      <point x="614" y="95"/>
      <point x="636" y="331" type="curve"/>
      <point x="561" y="331" type="line"/>
      <point x="578" y="104"/>
      <point x="684" y="-34"/>
      <point x="868" y="-34" type="curve" smooth="yes"/>
      <point x="1015" y="-34"/>
      <point x="1120" y="68"/>
      <point x="1179" y="269" type="curve"/>
      <point x="957" y="333" type="line"/>
      <point x="925" y="230"/>
      <point x="892" y="192"/>
      <point x="840" y="192" type="curve" smooth="yes"/>
      <point x="759" y="192"/>
      <point x="713" y="302"/>
      <point x="713" y="503" type="curve" smooth="yes"/>
      <point x="713" y="533" type="line" smooth="yes"/>
      <point x="713" y="755"/>
      <point x="755" y="862"/>
      <point x="834" y="862" type="curve" smooth="yes"/>
      <point x="902" y="862"/>
      <point x="934" y="786"/>
      <point x="934" y="625" type="curve"/>
      <point x="942" y="630" type="line"/>
      <point x="609" y="630" type="line"/>
      <point x="609" y="456" type="line"/>
      <point x="1181" y="456" type="line"/>
      <point x="1185" y="504"/>
      <point x="1186" y="540"/>
      <point x="1186" y="588" type="curve" smooth="yes"/>
      <point x="1186" y="905"/>
      <point x="1073" y="1086"/>
      <point x="876" y="1086" type="curve" smooth="yes"/>
      <point x="724" y="1086"/>
      <point x="606" y="971"/>
      <point x="572" y="790" type="curve"/>
      <point x="636" y="790" type="line"/>
      <point x="602" y="982"/>
      <point x="504" y="1086"/>
      <point x="358" y="1086" type="curve" smooth="yes"/>
      <point x="146" y="1086"/>
      <point x="25" y="892"/>
      <point x="25" y="553" type="curve" smooth="yes"/>
      <point x="25" y="499" type="line" smooth="yes"/>
      <point x="25" y="161"/>
      <point x="146" y="-34"/>
    </contour>
    <contour>
      <point x="388" y="210" type="curve" smooth="yes"/>
      <point x="315" y="210"/>
      <point x="277" y="309"/>
      <point x="277" y="503" type="curve" smooth="yes"/>
      <point x="277" y="549" type="line" smooth="yes"/>
      <point x="277" y="744"/>
      <point x="315" y="842"/>
      <point x="388" y="842" type="curve" smooth="yes"/>
      <point x="462" y="842"/>
      <point x="498" y="748"/>
      <point x="498" y="549" type="curve" smooth="yes"/>
      <point x="498" y="503" type="line" smooth="yes"/>
      <point x="498" y="305"/>
      <point x="462" y="210"/>
    </contour>
  </outline>
</glyph>
<glyph name="uogonek" format="2">
  <advance width="1200"/>
  <unicode hex="0173"/>
  <anchor x="616" y="-34" name="bottom"/>
  <anchor x="1053" y="0" name="ogonek"/>
  <anchor x="596" y="1052" name="top"/>
  <outline>
    <contour>
      <point x="913" y="-547" type="curve" smooth="yes"/>
      <point x="988" y="-547"/>
      <point x="1052" y="-531"/>
      <point x="1114" y="-495" type="curve"/>
      <point x="1055" y="-308" type="line"/>
      <point x="1026" y="-322"/>
      <point x="1001" y="-327"/>
      <point x="970" y="-327" type="curve" smooth="yes"/>
      <point x="904" y="-327"/>
      <point x="856" y="-286"/>
      <point x="856" y="-223" type="curve" smooth="yes"/>
      <point x="856" y="-138"/>
      <point x="914" y="-75"/>
      <point x="1053" y="0" type="curve"/>
      <point x="990" y="112" type="line"/>
      <point x="738" y="16"/>
      <point x="623" y="-109"/>
      <point x="623" y="-270" type="curve" smooth="yes"/>
      <point x="623" y="-429"/>
      <point x="748" y="-547"/>
    </contour>
    <component base="u"/>
  </outline>
</glyph>
<glyph name="longs" format="2">
  <advance width="1200"/>
  <unicode hex="017F"/>
  <outline>
    <contour>
      <point x="341" y="0" type="line"/>
      <point x="643" y="0" type="line"/>
      <point x="643" y="1021" type="line" smooth="yes"/>
      <point x="643" y="1139"/>
      <point x="698" y="1202"/>
      <point x="796" y="1202" type="curve" smooth="yes"/>
      <point x="861" y="1202"/>
      <point x="909" y="1175"/>
      <point x="965" y="1116" type="curve"/>
      <point x="1152" y="1338" type="line"/>
      <point x="1051" y="1444"/>
      <point x="930" y="1494"/>
      <point x="774" y="1494" type="curve" smooth="yes"/>
      <point x="515" y="1494"/>
      <point x="341" y="1324"/>
      <point x="341" y="1062" type="curve" smooth="yes"/>
    </contour>
    <contour>
      <point x="108" y="826" type="line"/>
      <point x="495" y="826" type="line"/>
      <point x="495" y="1052" type="line"/>
      <point x="108" y="1052" type="line"/>
    </contour>
  </outline>
</glyph>
<glyph name="Bhook" format="2">
  <advance width="1200"/>
  <unicode hex="0181"/>
  <outline>
    <contour>
      <point x="409" y="0" type="line"/>
      <point x="775" y="0" type="line" smooth="yes"/>
      <point x="1023" y="0"/>
      <point x="1190" y="150"/>
      <point x="1190" y="372" type="curve" smooth="yes"/>
      <point x="1190" y="395" type="line" smooth="yes"/>
      <point x="1190" y="568"/>
      <point x="1101" y="686"/>
      <point x="936" y="731" type="curve"/>
      <point x="936" y="740" type="line"/>
      <point x="1075" y="797"/>
      <point x="1152" y="908"/>
      <point x="1152" y="1050" type="curve" smooth="yes"/>
      <point x="1152" y="1071" type="line" smooth="yes"/>
      <point x="1152" y="1293"/>
      <point x="995" y="1432"/>
      <point x="747" y="1432" type="curve" smooth="yes"/>
      <point x="409" y="1432" type="line"/>
    </contour>
    <contour>
      <point x="17" y="810" type="curve"/>
      <point x="256" y="886" type="line"/>
      <point x="237" y="937"/>
      <point x="228" y="987"/>
      <point x="228" y="1037" type="curve" smooth="yes"/>
      <point x="228" y="1150"/>
      <point x="281" y="1211"/>
      <point x="383" y="1211" type="curve" smooth="yes"/>
      <point x="574" y="1211" type="line"/>
      <point x="574" y="1432" type="line"/>
      <point x="378" y="1432" type="line" smooth="yes"/>
      <point x="132" y="1432"/>
      <point x="-36" y="1275"/>
      <point x="-36" y="1045" type="curve" smooth="yes"/>
      <point x="-36" y="982"/>
      <point x="-17" y="898"/>
    </contour>
    <contour>
      <point x="663" y="226" type="line"/>
      <point x="663" y="1206" type="line"/>
      <point x="733" y="1206" type="line" smooth="yes"/>
      <point x="837" y="1206"/>
      <point x="884" y="1151"/>
      <point x="884" y="1030" type="curve" smooth="yes"/>
      <point x="884" y="1015" type="line" smooth="yes"/>
      <point x="884" y="896"/>
      <point x="834" y="838"/>
      <point x="733" y="838" type="curve" smooth="yes"/>
      <point x="575" y="838" type="line"/>
      <point x="575" y="616" type="line"/>
      <point x="733" y="616" type="line" smooth="yes"/>
      <point x="854" y="616"/>
      <point x="912" y="556"/>
      <point x="912" y="430" type="curve" smooth="yes"/>
      <point x="912" y="411" type="line" smooth="yes"/>
      <point x="912" y="285"/>
      <point x="857" y="226"/>
      <point x="741" y="226" type="curve" smooth="yes"/>
    </contour>
  </outline>
</glyph>
<glyph name="Schwa" format="2">
  <advance width="1200"/>
  <unicode hex="018F"/>
  <outline>
    <contour>
      <point x="616" y="-34" type="curve" smooth="yes"/>
      <point x="956" y="-34"/>
      <point x="1161" y="241"/>
      <point x="1161" y="698" type="curve" smooth="yes"/>
      <point x="1161" y="743" type="line" smooth="yes"/>
      <point x="1161" y="1223"/>
      <point x="983" y="1466"/>
      <point x="631" y="1466" type="curve" smooth="yes"/>
      <point x="416" y="1466"/>
      <point x="232" y="1376"/>
      <point x="93" y="1202" type="curve"/>
      <point x="309" y="1017" type="line"/>
      <point x="401" y="1127"/>
      <point x="498" y="1178"/>
      <point x="616" y="1178" type="curve" smooth="yes"/>
      <point x="792" y="1178"/>
      <point x="868" y="1054"/>
      <point x="868" y="766" type="curve" smooth="yes"/>
      <point x="868" y="688" type="line" smooth="yes"/>
      <point x="868" y="390"/>
      <point x="786" y="250"/>
      <point x="612" y="250" type="curve" smooth="yes"/>
      <point x="443" y="250"/>
      <point x="353" y="371"/>
      <point x="353" y="597" type="curve"/>
      <point x="350" y="553" type="line"/>
      <point x="988" y="553" type="line"/>
      <point x="988" y="799" type="line"/>
      <point x="80" y="799" type="line"/>
      <point x="72" y="750"/>
      <point x="69" y="698"/>
      <point x="69" y="637" type="curve" smooth="yes"/>
      <point x="69" y="217"/>
      <point x="273" y="-34"/>
    </contour>
  </outline>
</glyph>
<glyph name="Uhorn" format="2">
  <advance width="1200"/>
  <unicode hex="01AF"/>
  <anchor x="532" y="-34" name="bottom"/>
  <outline>
    <contour>
      <point x="530" y="-34" type="curve" smooth="yes"/>
      <point x="811" y="-34"/>
      <point x="997" y="152"/>
      <point x="997" y="432" type="curve" smooth="yes"/>
      <point x="997" y="1413" type="line"/>
      <point x="798" y="1300" type="line"/>
      <point x="859" y="1300" type="line" smooth="yes"/>
      <point x="1071" y="1300"/>
      <point x="1218" y="1408"/>
      <point x="1218" y="1586" type="curve" smooth="yes"/>
      <point x="1218" y="1680"/>
      <point x="1186" y="1762"/>
      <point x="1113" y="1857" type="curve"/>
      <point x="883" y="1710" type="line"/>
      <point x="929" y="1647"/>
      <point x="946" y="1604"/>
      <point x="946" y="1554" type="curve" smooth="yes"/>
      <point x="946" y="1477"/>
      <point x="889" y="1432"/>
      <point x="793" y="1432" type="curve" smooth="yes"/>
      <point x="707" y="1432" type="line"/>
      <point x="707" y="445" type="line" smooth="yes"/>
      <point x="707" y="326"/>
      <point x="640" y="253"/>
      <point x="532" y="253" type="curve" smooth="yes"/>
      <point x="423" y="253"/>
      <point x="357" y="326"/>
      <point x="357" y="445" type="curve" smooth="yes"/>
      <point x="357" y="1432" type="line"/>
      <point x="63" y="1432" type="line"/>
      <point x="63" y="432" type="line" smooth="yes"/>
      <point x="63" y="152"/>
      <point x="250" y="-34"/>
    </contour>
  </outline>
</glyph>
<glyph name="yhook" format="2">
  <advance width="1200"/>
  <unicode hex="01B4"/>
  <outline>
    <contour>
      <point x="273" y="-449" type="curve" smooth="yes"/>
      <point x="482" y="-449"/>
      <point x="623" y="-322"/>
      <point x="687" y="-84" type="curve" smooth="yes"/>
      <point x="944" y="874" type="line" smooth="yes"/>
      <point x="986" y="1032"/>
      <point x="1047" y="1095"/>
      <point x="1148" y="1095" type="curve" smooth="yes"/>
      <point x="1183" y="1095"/>
      <point x="1206" y="1089"/>
      <point x="1235" y="1077" type="curve"/>
      <point x="1293" y="1331" type="line"/>
      <point x="1238" y="1352"/>
      <point x="1186" y="1361"/>
      <point x="1124" y="1361" type="curve" smooth="yes"/>
      <point x="886" y="1361"/>
      <point x="742" y="1219"/>
      <point x="679" y="933" type="curve" smooth="yes"/>
      <point x="606" y="602" type="line"/>
      <point x="548" y="196" type="line"/>
      <point x="477" y="196" type="line"/>
      <point x="406" y="-65" type="line" smooth="yes"/>
      <point x="385" y="-143"/>
      <point x="335" y="-183"/>
      <point x="252" y="-183" type="curve" smooth="yes"/>
      <point x="201" y="-183"/>
      <point x="159" y="-171"/>
      <point x="103" y="-139" type="curve"/>
      <point x="-14" y="-372" type="line"/>
      <point x="68" y="-423"/>
      <point x="165" y="-449"/>
    </contour>
    <contour>
      <point x="437" y="-80" type="line"/>
      <point x="656" y="298" type="line"/>
      <point x="551" y="298" type="line"/>
      <point x="487" y="602" type="line"/>
      <point x="366" y="1052" type="line"/>
      <point x="62" y="1052" type="line"/>
    </contour>
  </outline>
</glyph>
<glyph name="LJ" format="2">
  <advance width="1200"/>
  <unicode hex="01C7"/>
  <outline>
    <contour>
      <point x="830" y="-34" type="curve" smooth="yes"/>
      <point x="1052" y="-34"/>
      <point x="1191" y="121"/>
      <point x="1191" y="347" type="curve" smooth="yes"/>
      <point x="1191" y="1432" type="line"/>
      <point x="899" y="1432" type="line"/>
      <point x="899" y="370" type="line" smooth="yes"/>
      <point x="899" y="290"/>
      <point x="860" y="244"/>
      <point x="792" y="244" type="curve" smooth="yes"/>
      <point x="751" y="244"/>
      <point x="715" y="256"/>
      <point x="682" y="280" type="curve"/>
      <point x="570" y="30" type="line"/>
      <point x="648" y="-12"/>
      <point x="733" y="-34"/>
    </contour>
    <contour>
      <point x="10" y="0" type="line"/>
      <point x="538" y="0" type="line"/>
      <point x="538" y="274" type="line"/>
      <point x="302" y="274" type="line"/>
      <point x="302" y="1432" type="line"/>
      <point x="10" y="1432" type="line"/>
    </contour>
  </outline>
</glyph>
<glyph name="lj" format="2">
  <advance width="1200"/>
  <unicode hex="01C9"/>
  <outline>
    <contour>
      <point x="800" y="-449" type="curve" smooth="yes"/>
      <point x="1039" y="-449"/>
      <point x="1189" y="-301"/>
      <point x="1189" y="-59" type="curve" smooth="yes"/>
      <point x="1189" y="1052" type="line"/>
      <point x="929" y="1052" type="line"/>
      <point x="929" y="-58" type="line" smooth="yes"/>
      <point x="929" y="-164"/>
      <point x="878" y="-214"/>
      <point x="786" y="-214" type="curve" smooth="yes"/>
      <point x="721" y="-214"/>
      <point x="671" y="-191"/>
      <point x="610" y="-142" type="curve"/>
      <point x="473" y="-329" type="line"/>
      <point x="568" y="-407"/>
      <point x="679" y="-449"/>
    </contour>
    <contour>
      <point x="592" y="0" type="curve" smooth="yes"/>
      <point x="706" y="0"/>
      <point x="792" y="35"/>
      <point x="870" y="111" type="curve"/>
      <point x="734" y="307" type="line"/>
      <point x="693" y="266"/>
      <point x="657" y="250"/>
      <point x="611" y="250" type="curve" smooth="yes"/>
      <point x="530" y="250"/>
      <point x="485" y="302"/>
      <point x="485" y="400" type="curve" smooth="yes"/>
      <point x="485" y="1460" type="line"/>
      <point x="225" y="1460" type="line"/>
      <point x="225" y="397" type="line" smooth="yes"/>
      <point x="225" y="149"/>
      <point x="363" y="0"/>
    </contour>
    <contour>
      <point x="12" y="1236" type="line"/>
      <point x="373" y="1236" type="line"/>
      <point x="373" y="1460" type="line"/>
      <point x="12" y="1460" type="line"/>
    </contour>
    <contour>
      <point x="663" y="828" type="line"/>
      <point x="1112" y="828" type="line"/>
      <point x="1112" y="1052" type="line"/>
      <point x="663" y="1052" type="line"/>
    </contour>
    <contour>
      <point x="1010" y="1246" type="curve" smooth="yes"/>
      <point x="1121" y="1246"/>
      <point x="1206" y="1330"/>
      <point x="1206" y="1440" type="curve" smooth="yes"/>
      <point x="1206" y="1552"/>
      <point x="1123" y="1633"/>
      <point x="1010" y="1633" type="curve" smooth="yes"/>
      <point x="898" y="1633"/>
      <point x="812" y="1550"/>
      <point x="812" y="1440" type="curve" smooth="yes"/>
      <point x="812" y="1332"/>
      <point x="900" y="1246"/>
    </contour>
  </outline>
</glyph>
<glyph name="Nj" format="2">
  <advance width="1200"/>
  <unicode hex="01CB"/>
  <outline>
    <contour>
      <point x="10" y="0" type="line"/>
      <point x="226" y="0" type="line"/>
      <point x="226" y="481" type="line"/>
      <point x="184" y="1138" type="line"/>
      <point x="200" y="1138" type="line"/>
      <point x="458" y="0" type="line"/>
      <point x="731" y="0" type="line"/>
      <point x="731" y="1432" type="line"/>
      <point x="515" y="1432" type="line"/>
      <point x="515" y="1052" type="line"/>
      <point x="560" y="421" type="line"/>
      <point x="543" y="421" type="line"/>
      <point x="311" y="1432" type="line"/>
      <point x="10" y="1432" type="line"/>
    </contour>
    <contour>
      <point x="815" y="-449" type="curve" smooth="yes"/>
      <point x="1033" y="-449"/>
      <point x="1172" y="-299"/>
      <point x="1172" y="-62" type="curve" smooth="yes"/>
      <point x="1172" y="1052" type="line"/>
      <point x="912" y="1052" type="line"/>
      <point x="912" y="-60" type="line" smooth="yes"/>
      <point x="912" y="-163"/>
      <point x="871" y="-214"/>
      <point x="788" y="-214" type="curve" smooth="yes"/>
      <point x="732" y="-214"/>
      <point x="688" y="-196"/>
      <point x="630" y="-148" type="curve"/>
      <point x="497" y="-329" type="line"/>
      <point x="594" y="-410"/>
      <point x="696" y="-449"/>
    </contour>
    <contour>
      <point x="1042" y="1247" type="curve" smooth="yes"/>
      <point x="1147" y="1247"/>
      <point x="1223" y="1327"/>
      <point x="1223" y="1440" type="curve" smooth="yes"/>
      <point x="1223" y="1554"/>
      <point x="1149" y="1633"/>
      <point x="1042" y="1633" type="curve" smooth="yes"/>
      <point x="935" y="1633"/>
      <point x="861" y="1554"/>
      <point x="861" y="1440" type="curve" smooth="yes"/>
      <point x="861" y="1327"/>
      <point x="936" y="1247"/>
    </contour>
  </outline>
</glyph>
<glyph name="dhook" format="2">
  <advance width="1200"/>
  <unicode hex="0257"/>
  <outline>
    <contour>
      <point x="424" y="-34" type="curve" smooth="yes"/>
      <point x="533" y="-34"/>
      <point x="621" y="33"/>
      <point x="672" y="155" type="curve"/>
      <point x="681" y="155" type="line"/>
      <point x="681" y="0" type="line"/>
      <point x="949" y="0" type="line"/>
      <point x="949" y="1101" type="line" smooth="yes"/>
      <point x="949" y="1220"/>
      <point x="992" y="1275"/>
      <point x="1078" y="1275" type="curve" smooth="yes"/>
      <point x="1110" y="1275"/>
      <point x="1133" y="1269"/>
      <point x="1158" y="1258" type="curve"/>
      <point x="1218" y="1513" type="line"/>
      <point x="1166" y="1533"/>
      <point x="1111" y="1543"/>
      <point x="1043" y="1543" type="curve" smooth="yes"/>
      <point x="830" y="1543"/>
      <point x="671" y="1393"/>
      <point x="671" y="1128" type="curve" smooth="yes"/>
      <point x="671" y="908" type="line"/>
      <point x="662" y="908" type="line"/>
      <point x="608" y="1028"/>
      <point x="527" y="1086"/>
      <point x="416" y="1086" type="curve" smooth="yes"/>
      <point x="205" y="1086"/>
      <point x="67" y="872"/>
      <point x="67" y="544" type="curve" smooth="yes"/>
      <point x="67" y="509" type="line" smooth="yes"/>
      <point x="67" y="186"/>
      <point x="212" y="-34"/>
    </contour>
    <contour>
      <point x="518" y="209" type="curve" smooth="yes"/>
      <point x="413" y="209"/>
      <point x="353" y="317"/>
      <point x="353" y="504" type="curve" smooth="yes"/>
      <point x="353" y="548" type="line" smooth="yes"/>
      <point x="353" y="736"/>
      <point x="413" y="844"/>
      <point x="518" y="844" type="curve" smooth="yes"/>
      <point x="618" y="844"/>
      <point x="680" y="731"/>
      <point x="680" y="548" type="curve" smooth="yes"/>
      <point x="680" y="504" type="line" smooth="yes"/>
      <point x="680" y="321"/>
      <point x="618" y="209"/>
    </contour>
  </outline>
</glyph>
<glyph name="gravecomb" format="2">
  <unicode hex="0300"/>
  <anchor x="0" y="1052" name="_top"/>
  <outline>
    <contour>
      <point x="-133" y="1258" type="line"/>
      <point x="133" y="1258" type="line"/>
      <point x="133" y="1272" type="line"/>
      <point x="-74" y="1636" type="line"/>
      <point x="-422" y="1636" type="line"/>
      <point x="-422" y="1623" type="line"/>
    </contour>
  </outline>
</glyph>
<glyph name="circumflexcomb" format="2">
  <unicode hex="0302"/>
  <anchor x="0" y="1052" name="_top"/>
  <outline>
    <contour>
      <point x="-437" y="1258" type="line"/>
      <point x="-141" y="1258" type="line"/>
      <point x="33" y="1553" type="line"/>
      <point x="-32" y="1553" type="line"/>
      <point x="141" y="1258" type="line"/>
      <point x="437" y="1258" type="line"/>
      <point x="437" y="1272" type="line"/>
      <point x="147" y="1636" type="line"/>
      <point x="-147" y="1636" type="line"/>
      <point x="-437" y="1272" type="line"/>
    </contour>
  </outline>
</glyph>
<glyph name="macroncomb" format="2">
  <unicode hex="0304"/>
  <anchor x="0" y="1052" name="_top"/>
  <outline>
    <contour>
      <point x="-323" y="1315" type="line"/>
      <point x="323" y="1315" type="line"/>
      <point x="323" y="1561" type="line"/>
      <point x="-323" y="1561" type="line"/>
    </contour>
  </outline>
</glyph>
<glyph name="dotaccentcomb" format="2">
  <unicode hex="0307"/>
  <anchor x="0" y="1052" name="_top"/>
  <outline>
    <contour>
      <point x="0" y="1246" type="curve" smooth="yes"/>
      <point x="114" y="1246"/>
      <point x="200" y="1333"/>
      <point x="200" y="1445" type="curve" smooth="yes"/>
      <point x="200" y="1556"/>
      <point x="114" y="1644"/>
      <point x="0" y="1644" type="curve" smooth="yes"/>
      <point x="-113" y="1644"/>
      <point x="-200" y="1556"/>
      <point x="-200" y="1445" type="curve" smooth="yes"/>
      <point x="-200" y="1333"/>
      <point x="-112" y="1246"/>
    </contour>
  </outline>
</glyph>
<glyph name="hookabovecomb" format="2">
  <unicode hex="0309"/>
  <anchor x="0" y="1052" name="_top"/>
  <outline>
    <contour>
      <point x="-31" y="1165" type="line"/>
      <point x="194" y="1186"/>
      <point x="319" y="1299"/>
      <point x="319" y="1480" type="curve" smooth="yes"/>
      <point x="319" y="1651"/>
      <point x="192" y="1762"/>
      <point x="-4" y="1762" type="curve" smooth="yes"/>
      <point x="-87" y="1762"/>
      <point x="-175" y="1742"/>
      <point x="-252" y="1708" type="curve"/>
      <point x="-195" y="1513" type="line"/>
      <point x="-134" y="1534"/>
      <point x="-69" y="1546"/>
      <point x="-9" y="1546" type="curve" smooth="yes"/>
      <point x="71" y="1546"/>
      <point x="109" y="1518"/>
      <point x="109" y="1462" type="curve" smooth="yes"/>
      <point x="109" y="1401"/>
      <point x="55" y="1371"/>
      <point x="-60" y="1363" type="curve"/>
    </contour>
  </outline>
</glyph>
<glyph name="commaaccentcomb" format="2">
  <unicode hex="0326"/>
  <anchor x="-1" y="0" name="_bottom"/>
  <outline>
    <contour>
      <point x="-88" y="-863" type="line"/>
      <point x="75" y="-622" type="line" smooth="yes"/>
      <point x="149" y="-513"/>
      <point x="178" y="-438"/>
      <point x="178" y="-360" type="curve" smooth="yes"/>
      <point x="178" y="-237"/>
      <point x="96" y="-154"/>
      <point x="-24" y="-154" type="curve" smooth="yes"/>
      <point x="-136" y="-154"/>
      <point x="-218" y="-231"/>
      <point x="-218" y="-337" type="curve" smooth="yes"/>
      <point x="-218" y="-438"/>
      <point x="-141" y="-515"/>
      <point x="-32" y="-521" type="curve"/>
      <point x="-26" y="-437" type="line"/>
      <point x="-255" y="-746" type="line"/>
    </contour>
  </outline>
</glyph>
<glyph name="Germandbls" format="2">
  <advance width="1200"/>
  <unicode hex="1E9E"/>
  <outline>
    <contour>
      <point x="756" y="-34" type="curve" smooth="yes"/>
      <point x="1020" y="-34"/>
      <point x="1190" y="138"/>
      <point x="1190" y="405" type="curve" smooth="yes"/>
      <point x="1190" y="427" type="line" smooth="yes"/>
      <point x="1190" y="696"/>
      <point x="1041" y="851"/>
      <point x="785" y="851" type="curve"/>
      <point x="877" y="802" type="line"/>
      <point x="877" y="854" type="line"/>
      <point x="1069" y="1282" type="line"/>
      <point x="1069" y="1432" type="line"/>
      <point x="596" y="1432" type="line" smooth="yes"/>
      <point x="256" y="1432"/>
      <point x="82" y="1264"/>
      <point x="82" y="935" type="curve" smooth="yes"/>
      <point x="82" y="0" type="line"/>
      <point x="384" y="0" type="line"/>
      <point x="384" y="925" type="line" smooth="yes"/>
      <point x="384" y="1078"/>
      <point x="455" y="1154"/>
      <point x="597" y="1154" type="curve" smooth="yes"/>
      <point x="706" y="1154" type="line"/>
      <point x="706" y="1146" type="line"/>
      <point x="552" y="803" type="line"/>
      <point x="552" y="653" type="line"/>
      <point x="656" y="653" type="line" smooth="yes"/>
      <point x="811" y="653"/>
      <point x="884" y="588"/>
      <point x="884" y="451" type="curve" smooth="yes"/>
      <point x="884" y="433" type="line" smooth="yes"/>
      <point x="884" y="314"/>
      <point x="827" y="245"/>
      <point x="730" y="245" type="curve" smooth="yes"/>
      <point x="682" y="245"/>
      <point x="636" y="260"/>
      <point x="593" y="289" type="curve"/>
      <point x="465" y="40" type="line"/>
      <point x="543" y="-6"/>
      <point x="651" y="-34"/>
    </contour>
  </outline>
</glyph>
<glyph name="ellipsis" format="2">
  <advance width="1200"/>
  <unicode hex="2026"/>
  <outline>
    <contour>
      <point x="200" y="-34" type="curve" smooth="yes"/>
      <point x="276" y="-34"/>
      <point x="334" y="30"/>
      <point x="334" y="114" type="curve" smooth="yes"/>
      <point x="334" y="197"/>
      <point x="277" y="259"/>
      <point x="200" y="259" type="curve" smooth="yes"/>
      <point x="123" y="259"/>
      <point x="66" y="197"/>
      <point x="66" y="114" type="curve" smooth="yes"/>
      <point x="66" y="30"/>
      <point x="124" y="-34"/>
    </contour>
    <contour>
      <point x="1000" y="-34" type="curve" smooth="yes"/>
      <point x="1077" y="-34"/>
      <point x="1134" y="30"/>
      <point x="1134" y="114" type="curve" smooth="yes"/>
      <point x="1134" y="197"/>
      <point x="1077" y="259"/>
      <point x="1000" y="259" type="curve" smooth="yes"/>
      <point x="923" y="259"/>
      <point x="866" y="197"/>
      <point x="866" y="114" type="curve" smooth="yes"/>
      <point x="866" y="30"/>
      <point x="924" y="-34"/>
    </contour>
    <contour>
      <point x="600" y="-34" type="curve" smooth="yes"/>
      <point x="676" y="-34"/>
      <point x="734" y="30"/>
      <point x="734" y="114" type="curve" smooth="yes"/>
      <point x="734" y="197"/>
      <point x="677" y="259"/>
      <point x="600" y="259" type="curve" smooth="yes"/>
      <point x="524" y="259"/>
      <point x="466" y="197"/>
      <point x="466" y="114" type="curve" smooth="yes"/>
      <point x="466" y="30"/>
      <point x="524" y="-34"/>
    </contour>
  </outline>
</glyph>
<glyph name="minute" format="2">
  <advance width="1200"/>
  <unicode hex="2032"/>
  <outline>
    <contour>
      <point x="294" y="839" type="line"/>
      <point x="572" y="839" type="line"/>
      <point x="721" y="1460" type="line"/>
      <point x="385" y="1460" type="line"/>
    </contour>
  </outline>
</glyph>
<glyph name="guilsinglleft" format="2">
  <advance width="1200"/>
  <unicode hex="2039"/>
  <outline>
    <contour>
      <point x="784" y="8" type="line"/>
      <point x="990" y="186" type="line"/>
      <point x="679" y="532" type="line"/>
      <point x="990" y="878" type="line"/>
      <point x="784" y="1057" type="line"/>
      <point x="303" y="532" type="line"/>
    </contour>
  </outline>
</glyph>
<glyph name="fraction" format="2">
  <advance width="1200"/>
  <unicode hex="2044"/>
  <outline>
    <contour>
      <point x="83" y="-34" type="line"/>
      <point x="256" y="-34" type="line"/>
      <point x="1117" y="1460" type="line"/>
      <point x="944" y="1460" type="line"/>
    </contour>
  </outline>
</glyph>
<glyph name="euro" format="2">
  <advance width="1200"/>
  <unicode hex="20AC"/>
  <outline>
    <contour>
      <point x="715" y="-34" type="curve" smooth="yes"/>
      <point x="918" y="-34"/>
      <point x="1054" y="44"/>
      <point x="1162" y="224" type="curve"/>
      <point x="954" y="365" type="line"/>
      <point x="892" y="260"/>
      <point x="822" y="218"/>
      <point x="712" y="218" type="curve" smooth="yes"/>
      <point x="536" y="218"/>
      <point x="441" y="340"/>
      <point x="441" y="568" type="curve" smooth="yes"/>
      <point x="441" y="864" type="line" smooth="yes"/>
      <point x="441" y="1094"/>
      <point x="533" y="1214"/>
      <point x="709" y="1214" type="curve" smooth="yes"/>
      <point x="820" y="1214"/>
      <point x="892" y="1171"/>
      <point x="953" y="1069" type="curve"/>
      <point x="1161" y="1210" type="line"/>
      <point x="1054" y="1387"/>
      <point x="917" y="1466"/>
      <point x="714" y="1466" type="curve" smooth="yes"/>
      <point x="386" y="1466"/>
      <point x="181" y="1227"/>
      <point x="181" y="863" type="curve" smooth="yes"/>
      <point x="181" y="569" type="line" smooth="yes"/>
      <point x="181" y="210"/>
      <point x="386" y="-34"/>
    </contour>
    <contour>
      <point x="6" y="460" type="line"/>
      <point x="895" y="460" type="line"/>
      <point x="895" y="644" type="line"/>
      <point x="6" y="644" type="line"/>
    </contour>
    <contour>
      <point x="6" y="790" type="line"/>
      <point x="895" y="790" type="line"/>
      <point x="895" y="974" type="line"/>
      <point x="6" y="974" type="line"/>
    </contour>
  </outline>
</glyph>
<glyph name="trademark" format="2">
  <advance width="1200"/>
  <unicode hex="2122"/>
  <outline>
    <contour>
      <point x="582" y="610" type="line"/>
      <point x="718" y="610" type="line"/>
      <point x="718" y="920" type="line"/>
      <point x="696" y="1184" type="line"/>
      <point x="706" y="1184" type="line"/>
      <point x="828" y="803" type="line"/>
      <point x="942" y="803" type="line"/>
      <point x="1064" y="1184" type="line"/>
      <point x="1074" y="1184" type="line"/>
      <point x="1052" y="920" type="line"/>
      <point x="1052" y="610" type="line"/>
      <point x="1188" y="610" type="line"/>
      <point x="1188" y="1458" type="line"/>
      <point x="1044" y="1458" type="line"/>
      <point x="928" y="1125" type="line"/>
      <point x="890" y="977" type="line"/>
      <point x="880" y="977" type="line"/>
      <point x="842" y="1125" type="line"/>
      <point x="726" y="1458" type="line"/>
      <point x="582" y="1458" type="line"/>
    </contour>
    <contour>
      <point x="189" y="610" type="line"/>
      <point x="343" y="610" type="line"/>
      <point x="343" y="1422" type="line"/>
      <point x="189" y="1422" type="line"/>
    </contour>
    <contour>
      <point x="12" y="1324" type="line"/>
      <point x="520" y="1324" type="line"/>
      <point x="520" y="1458" type="line"/>
      <point x="12" y="1458" type="line"/>
    </contour>
  </outline>
</glyph>
<glyph name="leftArrow" format="2">
  <advance width="1200"/>
  <unicode hex="2190"/>
  <outline>
    <contour>
      <point x="630" y="37" type="line"/>
      <point x="811" y="208" type="line"/>
      <point x="399" y="621" type="line"/>
      <point x="399" y="661" type="line"/>
      <point x="811" y="1075" type="line"/>
      <point x="630" y="1246" type="line"/>
      <point x="76" y="641" type="line"/>
    </contour>
    <contour>
      <point x="696" y="504" type="line"/>
      <point x="1164" y="504" type="line"/>
      <point x="1164" y="779" type="line"/>
      <point x="696" y="779" type="line"/>
      <point x="268" y="732" type="line"/>
      <point x="268" y="550" type="line"/>
    </contour>
  </outline>
</glyph>
<glyph name="upArrow" format="2">
  <advance width="1200"/>
  <unicode hex="2191"/>
  <outline>
    <contour>
      <point x="198" y="584" type="line"/>
      <point x="580" y="964" type="line"/>
      <point x="620" y="964" type="line"/>
      <point x="1001" y="584" type="line"/>
      <point x="1172" y="764" type="line"/>
      <point x="600" y="1287" type="line"/>
      <point x="28" y="764" type="line"/>
    </contour>
    <contour>
      <point x="457" y="-35" type="line"/>
      <point x="743" y="-35" type="line"/>
      <point x="743" y="667" type="line"/>
      <point x="691" y="1095" type="line"/>
      <point x="509" y="1095" type="line"/>
      <point x="457" y="667" type="line"/>
    </contour>
  </outline>
</glyph>
<glyph name="downArrow" format="2">
  <advance width="1200"/>
  <unicode hex="2193"/>
  <outline>
    <contour>
      <point x="600" y="-35" type="line"/>
      <point x="1172" y="489" type="line"/>
      <point x="1001" y="668" type="line"/>
      <point x="620" y="288" type="line"/>
      <point x="580" y="288" type="line"/>
      <point x="198" y="668" type="line"/>
      <point x="28" y="489" type="line"/>
    </contour>
    <contour>
      <point x="509" y="157" type="line"/>
      <point x="691" y="157" type="line"/>
      <point x="743" y="585" type="line"/>
      <point x="743" y="1287" type="line"/>
      <point x="457" y="1287" type="line"/>
      <point x="457" y="585" type="line"/>
    </contour>
  </outline>
</glyph>
<glyph name="rightwardsDoubleArrow" format="2">
  <advance width="1200"/>
  <unicode hex="21D2"/>
  <outline>
    <contour>
      <point x="566" y="-36" type="line"/>
      <point x="1188" y="641" type="line"/>
      <point x="566" y="1318" type="line"/>
      <point x="417" y="1174" type="line"/>
      <point x="863" y="725" type="line"/>
      <point x="863" y="558" type="line"/>
      <point x="417" y="109" type="line"/>
    </contour>
    <contour>
      <point x="25" y="340" type="line"/>
      <point x="473" y="340" type="line"/>
      <point x="927" y="437" type="line"/>
      <point x="927" y="545" type="line"/>
      <point x="25" y="545" type="line"/>
    </contour>
    <contour>
      <point x="25" y="737" type="line"/>
      <point x="927" y="737" type="line"/>
      <point x="927" y="846" type="line"/>
      <point x="473" y="942" type="line"/>
      <point x="25" y="942" type="line"/>
    </contour>
  </outline>
</glyph>
<glyph name="minus" format="2">
  <advance width="1200"/>
  <unicode hex="2212"/>
  <outline>
    <contour>
      <point x="124" y="499" type="line"/>
      <point x="1076" y="499" type="line"/>
      <point x="1076" y="784" type="line"/>
      <point x="124" y="784" type="line"/>
    </contour>
  </outline>
</glyph>
<glyph name="divisionslash" format="2">
  <advance width="1200"/>
  <unicode hex="2215"/>
  <outline>
    <contour>
      <point x="18" y="-34" type="line"/>
      <point x="334" y="-34" type="line"/>
      <point x="1182" y="1460" type="line"/>
      <point x="866" y="1460" type="line"/>
    </contour>
  </outline>
</glyph>
<glyph name="lessequal" format="2">
  <advance width="1200"/>
  <unicode hex="2264"/>
  <outline>
    <contour>
      <point x="1092" y="310" type="line"/>
      <point x="1092" y="599" type="line"/>
      <point x="665" y="726" type="line"/>
      <point x="422" y="780" type="line"/>
      <point x="422" y="788" type="line"/>
      <point x="665" y="842" type="line"/>
      <point x="1092" y="969" type="line"/>
      <point x="1092" y="1258" type="line"/>
      <point x="108" y="924" type="line"/>
      <point x="108" y="645" type="line"/>
    </contour>
    <contour>
      <point x="108" y="0" type="line"/>
      <point x="1092" y="0" type="line"/>
      <point x="1092" y="257" type="line"/>
      <point x="108" y="257" type="line"/>
    </contour>
  </outline>
</glyph>
<glyph name="propellor" format="2">
  <advance width="1200"/>
  <unicode hex="2318"/>
  <outline>
    <contour>
      <point x="280" y="132" type="curve" smooth="yes"/>
      <point x="442" y="132"/>
      <point x="543" y="242"/>
      <point x="543" y="420" type="curve" smooth="yes"/>
      <point x="543" y="475" type="line"/>
      <point x="657" y="475" type="line"/>
      <point x="657" y="420" type="line" smooth="yes"/>
      <point x="657" y="242"/>
      <point x="761" y="132"/>
      <point x="927" y="132" type="curve" smooth="yes"/>
      <point x="1083" y="132"/>
      <point x="1187" y="236"/>
      <point x="1187" y="391" type="curve" smooth="yes"/>
      <point x="1187" y="554"/>
      <point x="1072" y="656"/>
      <point x="891" y="656" type="curve" smooth="yes"/>
      <point x="844" y="656" type="line"/>
      <point x="844" y="776" type="line"/>
      <point x="891" y="776" type="line" smooth="yes"/>
      <point x="1072" y="776"/>
      <point x="1187" y="879"/>
      <point x="1187" y="1041" type="curve" smooth="yes"/>
      <point x="1187" y="1196"/>
      <point x="1083" y="1300"/>
      <point x="928" y="1300" type="curve" smooth="yes"/>
      <point x="761" y="1300"/>
      <point x="657" y="1189"/>
      <point x="657" y="1011" type="curve" smooth="yes"/>
      <point x="657" y="957" type="line"/>
      <point x="543" y="957" type="line"/>
      <point x="543" y="1011" type="line" smooth="yes"/>
      <point x="543" y="1189"/>
      <point x="442" y="1300"/>
      <point x="280" y="1300" type="curve" smooth="yes"/>
      <point x="120" y="1300"/>
      <point x="13" y="1196"/>
      <point x="13" y="1041" type="curve" smooth="yes"/>
      <point x="13" y="879"/>
      <point x="128" y="776"/>
      <point x="308" y="776" type="curve" smooth="yes"/>
      <point x="356" y="776" type="line"/>
      <point x="356" y="656" type="line"/>
      <point x="308" y="656" type="line" smooth="yes"/>
      <point x="128" y="656"/>
      <point x="13" y="554"/>
      <point x="13" y="391" type="curve" smooth="yes"/>
      <point x="13" y="236"/>
      <point x="120" y="132"/>
    </contour>
    <contour>
      <point x="280" y="318" type="curve" smooth="yes"/>
      <point x="231" y="318"/>
      <point x="201" y="349"/>
      <point x="201" y="397" type="curve" smooth="yes"/>
      <point x="201" y="454"/>
      <point x="239" y="483"/>
      <point x="316" y="483" type="curve" smooth="yes"/>
      <point x="364" y="483" type="line"/>
      <point x="364" y="431" type="line" smooth="yes"/>
      <point x="364" y="355"/>
      <point x="336" y="318"/>
    </contour>
    <contour>
      <point x="316" y="949" type="line" smooth="yes"/>
      <point x="240" y="949"/>
      <point x="201" y="978"/>
      <point x="201" y="1034" type="curve" smooth="yes"/>
      <point x="201" y="1083"/>
      <point x="230" y="1114"/>
      <point x="277" y="1114" type="curve" smooth="yes"/>
      <point x="336" y="1114"/>
      <point x="364" y="1078"/>
      <point x="364" y="1000" type="curve" smooth="yes"/>
      <point x="364" y="949" type="line"/>
    </contour>
    <contour>
      <point x="540" y="653" type="line"/>
      <point x="540" y="779" type="line"/>
      <point x="660" y="779" type="line"/>
      <point x="660" y="653" type="line"/>
    </contour>
    <contour>
      <point x="919" y="318" type="curve" smooth="yes"/>
      <point x="863" y="318"/>
      <point x="836" y="355"/>
      <point x="836" y="431" type="curve" smooth="yes"/>
      <point x="836" y="483" type="line"/>
      <point x="883" y="483" type="line" smooth="yes"/>
      <point x="961" y="483"/>
      <point x="999" y="454"/>
      <point x="999" y="397" type="curve" smooth="yes"/>
      <point x="999" y="349"/>
      <point x="968" y="318"/>
    </contour>
    <contour>
      <point x="836" y="949" type="line"/>
      <point x="836" y="1000" type="line" smooth="yes"/>
      <point x="836" y="1078"/>
      <point x="865" y="1114"/>
      <point x="923" y="1114" type="curve" smooth="yes"/>
      <point x="969" y="1114"/>
      <point x="999" y="1083"/>
      <point x="999" y="1034" type="curve" smooth="yes"/>
      <point x="999" y="978"/>
      <point x="960" y="949"/>
      <point x="883" y="949" type="curve" smooth="yes"/>
    </contour>
  </outline>
</glyph>
<glyph name="boxLightHorizontal" format="2">
  <advance width="1200"/>
  <unicode hex="2500"/>
  <outline>
    <contour>
      <point x="-150" y="494" type="line"/>
      <point x="1350" y="494" type="line"/>
      <point x="1350" y="794" type="line"/>
      <point x="-150" y="794" type="line"/>
    </contour>
  </outline>
</glyph>
<glyph name="boxHeavyHorizontal" format="2">
  <advance width="1200"/>
  <unicode hex="2501"/>
  <outline>
    <contour>
      <point x="-150" y="374" type="line"/>
      <point x="1350" y="374" type="line"/>
      <point x="1350" y="914" type="line"/>
      <point x="-150" y="914" type="line"/>
    </contour>
  </outline>
</glyph>
<glyph name="boxHeavyTripleDashHorizontal" format="2">
  <advance width="1200"/>
  <unicode hex="2505"/>
  <outline>
    <contour>
      <point x="867" y="374" type="line"/>
      <point x="1133" y="374" type="line"/>
      <point x="1133" y="914" type="line"/>
      <point x="867" y="914" type="line"/>
    </contour>
    <contour>
      <point x="67" y="374" type="line"/>
      <point x="333" y="374" type="line"/>
      <point x="333" y="914" type="line"/>
      <point x="67" y="914" type="line"/>
    </contour>
    <contour>
      <point x="467" y="374" type="line"/>
      <point x="733" y="374" type="line"/>
      <point x="733" y="914" type="line"/>
      <point x="467" y="914" type="line"/>
    </contour>
  </outline>
</glyph>
<glyph name="boxLightQuadrupleDashVertical" format="2">
  <advance width="1200"/>
  <unicode hex="250A"/>
  <outline>
    <contour>
      <point x="450" y="1347" type="line"/>
      <point x="750" y="1347" type="line"/>
      <point x="750" y="1816" type="line"/>
      <point x="450" y="1816" type="line"/>
    </contour>
    <contour>
      <point x="450" y="-528" type="line"/>
      <point x="750" y="-528" type="line"/>
      <point x="750" y="-59" type="line"/>
      <point x="450" y="-59" type="line"/>
    </contour>
    <contour>
      <point x="450" y="97" type="line"/>
      <point x="750" y="97" type="line"/>
      <point x="750" y="566" type="line"/>
      <point x="450" y="566" type="line"/>
    </contour>
    <contour>
      <point x="450" y="722" type="line"/>
      <point x="750" y="722" type="line"/>
      <point x="750" y="1191" type="line"/>
      <point x="450" y="1191" type="line"/>
    </contour>
  </outline>
</glyph>
<glyph name="boxHeavyQuadrupleDashVertical" format="2">
  <advance width="1200"/>
  <unicode hex="250B"/>
  <outline>
    <contour>
      <point x="330" y="1347" type="line"/>
      <point x="870" y="1347" type="line"/>
      <point x="870" y="1816" type="line"/>
      <point x="330" y="1816" type="line"/>
    </contour>
    <contour>
      <point x="330" y="-528" type="line"/>
      <point x="870" y="-528" type="line"/>
      <point x="870" y="-59" type="line"/>
      <point x="330" y="-59" type="line"/>
    </contour>
    <contour>
      <point x="330" y="97" type="line"/>
      <point x="870" y="97" type="line"/>
      <point x="870" y="566" type="line"/>
      <point x="330" y="566" type="line"/>
    </contour>
    <contour>
      <point x="330" y="722" type="line"/>
      <point x="870" y="722" type="line"/>
      <point x="870" y="1191" type="line"/>
      <point x="330" y="1191" type="line"/>
    </contour>
  </outline>
</glyph>
<glyph name="boxDownHeavyAndRightLight" format="2">
  <advance width="1200"/>
  <unicode hex="250E"/>
  <outline>
    <contour>
      <point x="330" y="-656" type="line"/>
      <point x="870" y="-656" type="line"/>
      <point x="870" y="494" type="line"/>
      <point x="1350" y="494" type="line"/>
      <point x="1350" y="794" type="line"/>
      <point x="330" y="794" type="line"/>
    </contour>
  </outline>
</glyph>
<glyph name="boxUpLightAndLeftHeavy" format="2">
  <advance width="1200"/>
  <unicode hex="2519"/>
  <outline>
    <contour>
      <point x="-150" y="374" type="line"/>
      <point x="750" y="374" type="line"/>
      <point x="750" y="1944" type="line"/>
      <point x="450" y="1944" type="line"/>
      <point x="450" y="914" type="line"/>
      <point x="-150" y="914" type="line"/>
    </contour>
  </outline>
</glyph>
<glyph name="boxHeavyUpAndLeft" format="2">
  <advance width="1200"/>
  <unicode hex="251B"/>
  <outline>
    <contour>
      <point x="-150" y="374" type="line"/>
      <point x="870" y="374" type="line"/>
      <point x="870" y="1944" type="line"/>
      <point x="330" y="1944" type="line"/>
      <point x="330" y="914" type="line"/>
      <point x="-150" y="914" type="line"/>
    </contour>
  </outline>
</glyph>
<glyph name="boxLightVerticalAndRight" format="2">
  <advance width="1200"/>
  <unicode hex="251C"/>
  <outline>
    <contour>
      <point x="450" y="-656" type="line"/>
      <point x="750" y="-656" type="line"/>
      <point x="750" y="494" type="line"/>
      <point x="1350" y="494" type="line"/>
      <point x="1350" y="794" type="line"/>
      <point x="750" y="794" type="line"/>
      <point x="750" y="1944" type="line"/>
      <point x="450" y="1944" type="line"/>
    </contour>
  </outline>
</glyph>
<glyph name="boxVerticalHeavyAndLeftLight" format="2">
  <advance width="1200"/>
  <unicode hex="2528"/>
  <outline>
    <contour>
      <point x="330" y="-656" type="line"/>
      <point x="870" y="-656" type="line"/>
      <point x="870" y="1944" type="line"/>
      <point x="330" y="1944" type="line"/>
      <point x="330" y="794" type="line"/>
      <point x="-150" y="794" type="line"/>
      <point x="-150" y="494" type="line"/>
      <point x="330" y="494" type="line"/>
    </contour>
  </outline>
</glyph>
<glyph name="boxHeavyDownAndHorizontal" format="2">
  <advance width="1200"/>
  <unicode hex="2533"/>
  <outline>
    <contour>
      <point x="330" y="-656" type="line"/>
      <point x="870" y="-656" type="line"/>
      <point x="870" y="374" type="line"/>
      <point x="1350" y="374" type="line"/>
      <point x="1350" y="914" type="line"/>
      <point x="-150" y="914" type="line"/>
      <point x="-150" y="374" type="line"/>
      <point x="330" y="374" type="line"/>
    </contour>
  </outline>
</glyph>
<glyph name="boxUpHeavyAndHorizontalLight" format="2">
  <advance width="1200"/>
  <unicode hex="2538"/>
  <outline>
    <contour>
      <point x="-150" y="494" type="line"/>
      <point x="1350" y="494" type="line"/>
      <point x="1350" y="794" type="line"/>
      <point x="870" y="794" type="line"/>
      <point x="870" y="1944" type="line"/>
      <point x="330" y="1944" type="line"/>
      <point x="330" y="794" type="line"/>
      <point x="-150" y="794" type="line"/>
    </contour>
  </outline>
</glyph>
<glyph name="boxLightVerticalAndHorizontal" format="2">
  <advance width="1200"/>
  <unicode hex="253C"/>
  <outline>
    <contour>
      <point x="450" y="-656" type="line"/>
      <point x="750" y="-656" type="line"/>
      <point x="750" y="494" type="line"/>
      <point x="1350" y="494" type="line"/>
      <point x="1350" y="794" type="line"/>
      <point x="750" y="794" type="line"/>
      <point x="750" y="1944" type="line"/>
      <point x="450" y="1944" type="line"/>
      <point x="450" y="794" type="line"/>
      <point x="-150" y="794" type="line"/>
      <point x="-150" y="494" type="line"/>
      <point x="450" y="494" type="line"/>
    </contour>
  </outline>
</glyph>
<glyph name="boxLightDoubleDashVertical" format="2">
  <advance width="1200"/>
  <unicode hex="254E"/>
  <outline>
    <contour>
      <point x="450" y="957" type="line"/>
      <point x="750" y="957" type="line"/>
      <point x="750" y="1582" type="line"/>
      <point x="450" y="1582" type="line"/>
    </contour>
    <contour>
      <point x="450" y="-293" type="line"/>
      <point x="750" y="-293" type="line"/>
      <point x="750" y="332" type="line"/>
      <point x="450" y="332" type="line"/>
    </contour>
  </outline>
</glyph>
<glyph name="boxDoubleDownAndLeft" format="2">
  <advance width="1200"/>
  <unicode hex="2557"/>
  <outline>
    <contour>
      <point x="750" y="-656" type="line"/>
      <point x="1050" y="-656" type="line"/>
      <point x="1050" y="1094" type="line"/>
      <point x="-150" y="1094" type="line"/>
      <point x="-150" y="794" type="line"/>
      <point x="750" y="794" type="line"/>
    </contour>
    <contour>
      <point x="150" y="-656" type="line"/>
      <point x="450" y="-656" type="line"/>
      <point x="450" y="494" type="line"/>
      <point x="-150" y="494" type="line"/>
      <point x="-150" y="194" type="line"/>
      <point x="150" y="194" type="line"/>
    </contour>
  </outline>
</glyph>
<glyph name="boxLightArcDownAndRight" format="2">
  <advance width="1200"/>
  <unicode hex="256D"/>
  <outline>
    <contour>
      <point x="450" y="-656" type="line"/>
      <point x="750" y="-656" type="line"/>
      <point x="750" y="194" type="line" smooth="yes"/>
      <point x="750" y="385"/>
      <point x="859" y="494"/>
      <point x="1050" y="494" type="curve" smooth="yes"/>
      <point x="1350" y="494" type="line"/>
      <point x="1350" y="794" type="line"/>
      <point x="1050" y="794" type="line" smooth="yes"/>
      <point x="676" y="794"/>
      <point x="450" y="568"/>
      <point x="450" y="194" type="curve" smooth="yes"/>
    </contour>
  </outline>
</glyph>
<glyph name="boxLightDiagonalUpperRightToLowerLeft" format="2">
  <advance width="1200"/>
  <unicode hex="2571"/>
  <outline>
    <contour>
      <point x="0" y="-606" type="line"/>
      <point x="166" y="-606" type="line"/>
      <point x="1200" y="1547" type="line"/>
      <point x="1200" y="1894" type="line"/>
      <point x="1034" y="1894" type="line"/>
      <point x="0" y="-259" type="line"/>
    </contour>
  </outline>
</glyph>
<glyph name="boxLightRight" format="2">
  <advance width="1200"/>
  <unicode hex="2576"/>
  <outline>
    <contour>
      <point x="450" y="494" type="line"/>
      <point x="1350" y="494" type="line"/>
      <point x="1350" y="794" type="line"/>
      <point x="450" y="794" type="line"/>
    </contour>
  </outline>
</glyph>
<glyph name="boxLightDown" format="2">
  <advance width="1200"/>
  <unicode hex="2577"/>
  <outline>
    <contour>
      <point x="450" y="-656" type="line"/>
      <point x="750" y="-656" type="line"/>
      <point x="750" y="794" type="line"/>
      <point x="450" y="794" type="line"/>
    </contour>
  </outline>
</glyph>
<glyph name="boxHeavyUp" format="2">
  <advance width="1200"/>
  <unicode hex="2579"/>
  <outline>
    <contour>
      <point x="330" y="494" type="line"/>
      <point x="870" y="494" type="line"/>
      <point x="870" y="1944" type="line"/>
      <point x="330" y="1944" type="line"/>
    </contour>
  </outline>
</glyph>
<glyph name="boxHeavyLeftAndLightRight" format="2">
  <advance width="1200"/>
  <unicode hex="257E"/>
  <outline>
    <contour>
      <point x="-150" y="374" type="line"/>
      <point x="750" y="374" type="line"/>
      <point x="750" y="494" type="line"/>
      <point x="1350" y="494" type="line"/>
      <point x="1350" y="794" type="line"/>
      <point x="750" y="794" type="line"/>
      <point x="750" y="914" type="line"/>
      <point x="-150" y="914" type="line"/>
    </contour>
  </outline>
</glyph>
<glyph name="leftSevenEighthsBlock" format="2">
  <advance width="1200"/>
  <unicode hex="2589"/>
  <outline>
    <contour>
      <point x="0" y="-656" type="line"/>
      <point x="1050" y="-656" type="line"/>
      <point x="1050" y="1944" type="line"/>
      <point x="0" y="1944" type="line"/>
    </contour>
  </outline>
</glyph>
<glyph name="shademedium" format="2">
  <advance width="1200"/>
  <unicode hex="2592"/>
  <outline>
    <contour>
      <point x="8" y="1180" type="line"/>
      <point x="197" y="1180" type="line"/>
      <point x="197" y="1368" type="line"/>
      <point x="8" y="1368" type="line"/>
    </contour>
    <contour>
      <point x="8" y="823" type="line"/>
      <point x="197" y="823" type="line"/>
      <point x="197" y="1011" type="line"/>
      <point x="8" y="1011" type="line"/>
    </contour>
    <contour>
      <point x="8" y="465" type="line"/>
      <point x="197" y="465" type="line"/>
      <point x="197" y="653" type="line"/>
      <point x="8" y="653" type="line"/>
    </contour>
    <contour>
      <point x="8" y="108" type="line"/>
      <point x="197" y="108" type="line"/>
      <point x="197" y="296" type="line"/>
      <point x="8" y="296" type="line"/>
    </contour>
    <contour>
      <point x="8" y="-251" type="line"/>
      <point x="197" y="-251" type="line"/>
      <point x="197" y="-62" type="line"/>
      <point x="8" y="-62" type="line"/>
    </contour>
    <contour>
      <point x="208" y="1708" type="line"/>
      <point x="397" y="1708" type="line"/>
      <point x="397" y="1896" type="line"/>
      <point x="208" y="1896" type="line"/>
    </contour>
    <contour>
      <point x="208" y="1359" type="line"/>
      <point x="397" y="1359" type="line"/>
      <point x="397" y="1548" type="line"/>
      <point x="208" y="1548" type="line"/>
    </contour>
    <contour>
      <point x="208" y="1002" type="line"/>
      <point x="397" y="1002" type="line"/>
      <point x="397" y="1190" type="line"/>
      <point x="208" y="1190" type="line"/>
    </contour>
    <contour>
      <point x="208" y="644" type="line"/>
      <point x="397" y="644" type="line"/>
      <point x="397" y="833" type="line"/>
      <point x="208" y="833" type="line"/>
    </contour>
    <contour>
      <point x="208" y="286" type="line"/>
      <point x="397" y="286" type="line"/>
      <point x="397" y="475" type="line"/>
      <point x="208" y="475" type="line"/>
    </contour>
    <contour>
      <point x="208" y="-71" type="line"/>
      <point x="397" y="-71" type="line"/>
      <point x="397" y="117" type="line"/>
      <point x="208" y="117" type="line"/>
    </contour>
    <contour>
      <point x="208" y="-429" type="line"/>
      <point x="397" y="-429" type="line"/>
      <point x="397" y="-241" type="line"/>
      <point x="208" y="-241" type="line"/>
    </contour>
    <contour>
      <point x="406" y="1538" type="line"/>
      <point x="594" y="1538" type="line"/>
      <point x="594" y="1726" type="line"/>
      <point x="406" y="1726" type="line"/>
    </contour>
    <contour>
      <point x="406" y="1181" type="line"/>
      <point x="594" y="1181" type="line"/>
      <point x="594" y="1369" type="line"/>
      <point x="406" y="1369" type="line"/>
    </contour>
    <contour>
      <point x="406" y="823" type="line"/>
      <point x="594" y="823" type="line"/>
      <point x="594" y="1011" type="line"/>
      <point x="406" y="1011" type="line"/>
    </contour>
    <contour>
      <point x="406" y="465" type="line"/>
      <point x="594" y="465" type="line"/>
      <point x="594" y="653" type="line"/>
      <point x="406" y="653" type="line"/>
    </contour>
    <contour>
      <point x="406" y="107" type="line"/>
      <point x="594" y="107" type="line"/>
      <point x="594" y="296" type="line"/>
      <point x="406" y="296" type="line"/>
    </contour>
    <contour>
      <point x="406" y="-250" type="line"/>
      <point x="594" y="-250" type="line"/>
      <point x="594" y="-62" type="line"/>
      <point x="406" y="-62" type="line"/>
    </contour>
    <contour>
      <point x="606" y="1708" type="line"/>
      <point x="794" y="1708" type="line"/>
      <point x="794" y="1896" type="line"/>
      <point x="606" y="1896" type="line"/>
    </contour>
    <contour>
      <point x="606" y="1352" type="line"/>
      <point x="795" y="1352" type="line"/>
      <point x="795" y="1540" type="line"/>
      <point x="606" y="1540" type="line"/>
    </contour>
    <contour>
      <point x="606" y="996" type="line"/>
      <point x="795" y="996" type="line"/>
      <point x="795" y="1184" type="line"/>
      <point x="606" y="1184" type="line"/>
    </contour>
    <contour>
      <point x="606" y="640" type="line"/>
      <point x="795" y="640" type="line"/>
      <point x="795" y="828" type="line"/>
      <point x="606" y="828" type="line"/>
    </contour>
    <contour>
      <point x="606" y="284" type="line"/>
      <point x="795" y="284" type="line"/>
      <point x="795" y="472" type="line"/>
      <point x="606" y="472" type="line"/>
    </contour>
    <contour>
      <point x="606" y="-73" type="line"/>
      <point x="795" y="-73" type="line"/>
      <point x="795" y="116" type="line"/>
      <point x="606" y="116" type="line"/>
    </contour>
    <contour>
      <point x="606" y="-429" type="line"/>
      <point x="795" y="-429" type="line"/>
      <point x="795" y="-241" type="line"/>
      <point x="606" y="-241" type="line"/>
    </contour>
    <contour>
      <point x="804" y="1538" type="line"/>
      <point x="992" y="1538" type="line"/>
      <point x="992" y="1726" type="line"/>
      <point x="804" y="1726" type="line"/>
    </contour>
    <contour>
      <point x="804" y="1181" type="line"/>
      <point x="992" y="1181" type="line"/>
      <point x="992" y="1369" type="line"/>
      <point x="804" y="1369" type="line"/>
    </contour>
    <contour>
      <point x="804" y="823" type="line"/>
      <point x="992" y="823" type="line"/>
      <point x="992" y="1011" type="line"/>
      <point x="804" y="1011" type="line"/>
    </contour>
    <contour>
      <point x="804" y="465" type="line"/>
      <point x="992" y="465" type="line"/>
      <point x="992" y="653" type="line"/>
      <point x="804" y="653" type="line"/>
    </contour>
    <contour>
      <point x="804" y="107" type="line"/>
      <point x="992" y="107" type="line"/>
      <point x="992" y="296" type="line"/>
      <point x="804" y="296" type="line"/>
    </contour>
    <contour>
      <point x="804" y="-250" type="line"/>
      <point x="992" y="-250" type="line"/>
      <point x="992" y="-62" type="line"/>
      <point x="804" y="-62" type="line"/>
    </contour>
    <contour>
      <point x="1004" y="1708" type="line"/>
      <point x="1192" y="1708" type="line"/>
      <point x="1192" y="1896" type="line"/>
      <point x="1004" y="1896" type="line"/>
    </contour>
    <contour>
      <point x="1004" y="1352" type="line"/>
      <point x="1192" y="1352" type="line"/>
      <point x="1192" y="1540" type="line"/>
      <point x="1004" y="1540" type="line"/>
    </contour>
    <contour>
      <point x="1004" y="996" type="line"/>
      <point x="1192" y="996" type="line"/>
      <point x="1192" y="1184" type="line"/>
      <point x="1004" y="1184" type="line"/>
    </contour>
    <contour>
      <point x="1004" y="640" type="line"/>
      <point x="1192" y="640" type="line"/>
      <point x="1192" y="828" type="line"/>
      <point x="1004" y="828" type="line"/>
    </contour>
    <contour>
      <point x="1004" y="284" type="line"/>
      <point x="1192" y="284" type="line"/>
      <point x="1192" y="472" type="line"/>
      <point x="1004" y="472" type="line"/>
    </contour>
    <contour>
      <point x="1004" y="-73" type="line"/>
      <point x="1192" y="-73" type="line"/>
      <point x="1192" y="116" type="line"/>
      <point x="1004" y="116" type="line"/>
    </contour>
    <contour>
      <point x="1004" y="-429" type="line"/>
      <point x="1192" y="-429" type="line"/>
      <point x="1192" y="-241" type="line"/>
      <point x="1004" y="-241" type="line"/>
    </contour>
    <contour>
      <point x="8" y="-608" type="line"/>
      <point x="197" y="-608" type="line"/>
      <point x="197" y="-419" type="line"/>
      <point x="8" y="-419" type="line"/>
    </contour>
    <contour>
      <point x="406" y="-608" type="line"/>
      <point x="594" y="-608" type="line"/>
      <point x="594" y="-419" type="line"/>
      <point x="406" y="-419" type="line"/>
    </contour>
    <contour>
      <point x="804" y="-608" type="line"/>
      <point x="992" y="-608" type="line"/>
      <point x="992" y="-419" type="line"/>
      <point x="804" y="-419" type="line"/>
    </contour>
    <contour>
      <point x="8" y="1538" type="line"/>
      <point x="197" y="1538" type="line"/>
      <point x="197" y="1726" type="line"/>
      <point x="8" y="1726" type="line"/>
    </contour>
  </outline>
</glyph>
<glyph name="shadedark" format="2">
  <advance width="1200"/>
  <unicode hex="2593"/>
  <outline>
    <contour>
      <point x="-6" y="-608" type="line"/>
      <point x="1206" y="-608" type="line"/>
      <point x="1206" y="1896" type="line"/>
      <point x="-6" y="1896" type="line"/>
    </contour>
    <contour>
      <point x="48" y="-608" type="line"/>
      <point x="48" y="-506" type="line"/>
      <point x="150" y="-506" type="line"/>
      <point x="150" y="-608" type="line"/>
    </contour>
    <contour>
      <point x="48" y="-250" type="line"/>
      <point x="48" y="-148" type="line"/>
      <point x="150" y="-148" type="line"/>
      <point x="150" y="-250" type="line"/>
    </contour>
    <contour>
      <point x="250" y="-429" type="line"/>
      <point x="250" y="-327" type="line"/>
      <point x="352" y="-327" type="line"/>
      <point x="352" y="-429" type="line"/>
    </contour>
    <contour>
      <point x="449" y="-608" type="line"/>
      <point x="449" y="-506" type="line"/>
      <point x="551" y="-506" type="line"/>
      <point x="551" y="-608" type="line"/>
    </contour>
    <contour>
      <point x="48" y="107" type="line"/>
      <point x="48" y="209" type="line"/>
      <point x="150" y="209" type="line"/>
      <point x="150" y="107" type="line"/>
    </contour>
    <contour>
      <point x="250" y="-71" type="line"/>
      <point x="250" y="31" type="line"/>
      <point x="352" y="31" type="line"/>
      <point x="352" y="-71" type="line"/>
    </contour>
    <contour>
      <point x="449" y="-250" type="line"/>
      <point x="449" y="-148" type="line"/>
      <point x="551" y="-148" type="line"/>
      <point x="551" y="-250" type="line"/>
    </contour>
    <contour>
      <point x="651" y="-429" type="line"/>
      <point x="651" y="-327" type="line"/>
      <point x="753" y="-327" type="line"/>
      <point x="753" y="-429" type="line"/>
    </contour>
    <contour>
      <point x="848" y="-608" type="line"/>
      <point x="848" y="-506" type="line"/>
      <point x="950" y="-506" type="line"/>
      <point x="950" y="-608" type="line"/>
    </contour>
    <contour>
      <point x="48" y="465" type="line"/>
      <point x="48" y="567" type="line"/>
      <point x="150" y="567" type="line"/>
      <point x="150" y="465" type="line"/>
    </contour>
    <contour>
      <point x="250" y="286" type="line"/>
      <point x="250" y="388" type="line"/>
      <point x="352" y="388" type="line"/>
      <point x="352" y="286" type="line"/>
    </contour>
    <contour>
      <point x="449" y="107" type="line"/>
      <point x="449" y="209" type="line"/>
      <point x="551" y="209" type="line"/>
      <point x="551" y="107" type="line"/>
    </contour>
    <contour>
      <point x="651" y="-71" type="line"/>
      <point x="651" y="31" type="line"/>
      <point x="753" y="31" type="line"/>
      <point x="753" y="-71" type="line"/>
    </contour>
    <contour>
      <point x="848" y="-250" type="line"/>
      <point x="848" y="-148" type="line"/>
      <point x="950" y="-148" type="line"/>
      <point x="950" y="-250" type="line"/>
    </contour>
    <contour>
      <point x="1050" y="-429" type="line"/>
      <point x="1050" y="-327" type="line"/>
      <point x="1152" y="-327" type="line"/>
      <point x="1152" y="-429" type="line"/>
    </contour>
    <contour>
      <point x="48" y="823" type="line"/>
      <point x="48" y="925" type="line"/>
      <point x="150" y="925" type="line"/>
      <point x="150" y="823" type="line"/>
    </contour>
    <contour>
      <point x="250" y="644" type="line"/>
      <point x="250" y="746" type="line"/>
      <point x="352" y="746" type="line"/>
      <point x="352" y="644" type="line"/>
    </contour>
    <contour>
      <point x="449" y="465" type="line"/>
      <point x="449" y="567" type="line"/>
      <point x="551" y="567" type="line"/>
      <point x="551" y="465" type="line"/>
    </contour>
    <contour>
      <point x="651" y="286" type="line"/>
      <point x="651" y="388" type="line"/>
      <point x="753" y="388" type="line"/>
      <point x="753" y="286" type="line"/>
    </contour>
    <contour>
      <point x="848" y="107" type="line"/>
      <point x="848" y="209" type="line"/>
      <point x="950" y="209" type="line"/>
      <point x="950" y="107" type="line"/>
    </contour>
    <contour>
      <point x="1050" y="-71" type="line"/>
      <point x="1050" y="31" type="line"/>
      <point x="1152" y="31" type="line"/>
      <point x="1152" y="-71" type="line"/>
    </contour>
    <contour>
      <point x="48" y="1181" type="line"/>
      <point x="48" y="1283" type="line"/>
      <point x="150" y="1283" type="line"/>
      <point x="150" y="1181" type="line"/>
    </contour>
    <contour>
      <point x="250" y="1002" type="line"/>
      <point x="250" y="1104" type="line"/>
      <point x="352" y="1104" type="line"/>
      <point x="352" y="1002" type="line"/>
    </contour>
    <contour>
      <point x="449" y="823" type="line"/>
      <point x="449" y="925" type="line"/>
      <point x="551" y="925" type="line"/>
      <point x="551" y="823" type="line"/>
    </contour>
    <contour>
      <point x="651" y="644" type="line"/>
      <point x="651" y="746" type="line"/>
      <point x="753" y="746" type="line"/>
      <point x="753" y="644" type="line"/>
    </contour>
    <contour>
      <point x="848" y="465" type="line"/>
      <point x="848" y="567" type="line"/>
      <point x="950" y="567" type="line"/>
      <point x="950" y="465" type="line"/>
    </contour>
    <contour>
      <point x="1050" y="286" type="line"/>
      <point x="1050" y="388" type="line"/>
      <point x="1152" y="388" type="line"/>
      <point x="1152" y="286" type="line"/>
    </contour>
    <contour>
      <point x="48" y="1538" type="line"/>
      <point x="48" y="1640" type="line"/>
      <point x="150" y="1640" type="line"/>
      <point x="150" y="1538" type="line"/>
    </contour>
    <contour>
      <point x="250" y="1359" type="line"/>
      <point x="250" y="1461" type="line"/>
      <point x="352" y="1461" type="line"/>
      <point x="352" y="1359" type="line"/>
    </contour>
    <contour>
      <point x="448" y="1181" type="line"/>
      <point x="448" y="1283" type="line"/>
      <point x="550" y="1283" type="line"/>
      <point x="550" y="1181" type="line"/>
    </contour>
    <contour>
      <point x="650" y="1002" type="line"/>
      <point x="650" y="1104" type="line"/>
      <point x="752" y="1104" type="line"/>
      <point x="752" y="1002" type="line"/>
    </contour>
    <contour>
      <point x="848" y="823" type="line"/>
      <point x="848" y="925" type="line"/>
      <point x="950" y="925" type="line"/>
      <point x="950" y="823" type="line"/>
    </contour>
    <contour>
      <point x="1050" y="644" type="line"/>
      <point x="1050" y="746" type="line"/>
      <point x="1152" y="746" type="line"/>
      <point x="1152" y="644" type="line"/>
    </contour>
    <contour>
      <point x="250" y="1717" type="line"/>
      <point x="250" y="1819" type="line"/>
      <point x="352" y="1819" type="line"/>
      <point x="352" y="1717" type="line"/>
    </contour>
    <contour>
      <point x="448" y="1538" type="line"/>
      <point x="448" y="1640" type="line"/>
      <point x="550" y="1640" type="line"/>
      <point x="550" y="1538" type="line"/>
    </contour>
    <contour>
      <point x="650" y="1359" type="line"/>
      <point x="650" y="1461" type="line"/>
      <point x="752" y="1461" type="line"/>
      <point x="752" y="1359" type="line"/>
    </contour>
    <contour>
      <point x="848" y="1181" type="line"/>
      <point x="848" y="1283" type="line"/>
      <point x="950" y="1283" type="line"/>
      <point x="950" y="1181" type="line"/>
    </contour>
    <contour>
      <point x="1050" y="1002" type="line"/>
      <point x="1050" y="1104" type="line"/>
      <point x="1152" y="1104" type="line"/>
      <point x="1152" y="1002" type="line"/>
    </contour>
    <contour>
      <point x="650" y="1717" type="line"/>
      <point x="650" y="1819" type="line"/>
      <point x="752" y="1819" type="line"/>
      <point x="752" y="1717" type="line"/>
    </contour>
    <contour>
      <point x="848" y="1538" type="line"/>
      <point x="848" y="1640" type="line"/>
      <point x="950" y="1640" type="line"/>
      <point x="950" y="1538" type="line"/>
    </contour>
    <contour>
      <point x="1050" y="1359" type="line"/>
      <point x="1050" y="1461" type="line"/>
      <point x="1152" y="1461" type="line"/>
      <point x="1152" y="1359" type="line"/>
    </contour>
    <contour>
      <point x="1050" y="1717" type="line"/>
      <point x="1050" y="1819" type="line"/>
      <point x="1152" y="1819" type="line"/>
      <point x="1152" y="1717" type="line"/>
    </contour>
  </outline>
</glyph>
<glyph name="blackSquare" format="2">
  <advance width="1200"/>
  <unicode hex="25A0"/>
  <outline>
    <contour>
      <point x="110" y="226" type="line"/>
      <point x="1090" y="226" type="line"/>
      <point x="1090" y="1206" type="line"/>
      <point x="110" y="1206" type="line"/>
    </contour>
  </outline>
</glyph>
<glyph name="blackSmallSquare" format="2">
  <advance width="1200"/>
  <unicode hex="25AA"/>
  <outline>
    <contour>
      <point x="318" y="302" type="line"/>
      <point x="883" y="302" type="line"/>
      <point x="883" y="866" type="line"/>
      <point x="318" y="866" type="line"/>
    </contour>
  </outline>
</glyph>
<glyph name="whiteSmallSquare" format="2">
  <advance width="1200"/>
  <unicode hex="25AB"/>
  <outline>
    <contour>
      <point x="247" y="231" type="line"/>
      <point x="953" y="231" type="line"/>
      <point x="953" y="937" type="line"/>
      <point x="247" y="937" type="line"/>
    </contour>
    <contour>
      <point x="395" y="377" type="line"/>
      <point x="395" y="790" type="line"/>
      <point x="804" y="790" type="line"/>
      <point x="804" y="377" type="line"/>
    </contour>
  </outline>
</glyph>
<glyph name="filledRect" format="2">
  <advance width="1200"/>
  <unicode hex="25AC"/>
  <outline>
    <contour>
      <point x="52" y="369" type="line"/>
      <point x="1148" y="369" type="line"/>
      <point x="1148" y="688" type="line"/>
      <point x="52" y="688" type="line"/>
    </contour>
  </outline>
</glyph>
<glyph name="fisheye" format="2">
  <advance width="1200"/>
  <unicode hex="25C9"/>
  <outline>
    <contour>
      <point x="600" y="142" type="curve" smooth="yes"/>
      <point x="930" y="142"/>
      <point x="1174" y="387"/>
      <point x="1174" y="716" type="curve" smooth="yes"/>
      <point x="1174" y="1046"/>
      <point x="930" y="1290"/>
      <point x="600" y="1290" type="curve" smooth="yes"/>
      <point x="272" y="1290"/>
      <point x="26" y="1045"/>
      <point x="26" y="716" type="curve" smooth="yes"/>
      <point x="26" y="388"/>
      <point x="272" y="142"/>
    </contour>
    <contour>
      <point x="600" y="306" type="curve" smooth="yes"/>
      <point x="368" y="306"/>
      <point x="194" y="481"/>
      <point x="194" y="716" type="curve" smooth="yes"/>
      <point x="194" y="951"/>
      <point x="368" y="1126"/>
      <point x="600" y="1126" type="curve" smooth="yes"/>
      <point x="832" y="1126"/>
      <point x="1006" y="951"/>
      <point x="1006" y="716" type="curve" smooth="yes"/>
      <point x="1006" y="481"/>
      <point x="832" y="306"/>
    </contour>
    <contour>
      <point x="600" y="436" type="curve" smooth="yes"/>
      <point x="757" y="436"/>
      <point x="872" y="554"/>
      <point x="872" y="716" type="curve" smooth="yes"/>
      <point x="872" y="878"/>
      <point x="757" y="996"/>
      <point x="600" y="996" type="curve" smooth="yes"/>
      <point x="443" y="996"/>
      <point x="328" y="878"/>
      <point x="328" y="716" type="curve" smooth="yes"/>
      <point x="328" y="554"/>
      <point x="443" y="436"/>
    </contour>
  </outline>
</glyph>
<glyph name="Ohorn.alt" format="2">
  <advance width="1200"/>
  <anchor x="608" y="1432" name="top"/>
  <outline>
    <contour>
      <point x="596" y="-34" type="curve" smooth="yes"/>
      <point x="933" y="-34"/>
      <point x="1136" y="240"/>
      <point x="1136" y="694" type="curve" smooth="yes"/>
      <point x="1136" y="738" type="line" smooth="yes"/>
      <point x="1136" y="1094"/>
      <point x="1012" y="1314"/>
      <point x="770" y="1400" type="curve"/>
      <point x="749" y="1316" type="line"/>
      <point x="838" y="1316" type="line" smooth="yes"/>
      <point x="1070" y="1316"/>
      <point x="1207" y="1425"/>
      <point x="1207" y="1590" type="curve" smooth="yes"/>
      <point x="1207" y="1639"/>
      <point x="1198" y="1697"/>
      <point x="1180" y="1753" type="curve"/>
      <point x="881" y="1684" type="line"/>
      <point x="896" y="1633"/>
      <point x="905" y="1590"/>
      <point x="905" y="1543" type="curve" smooth="yes"/>
      <point x="905" y="1476"/>
      <point x="875" y="1446"/>
      <point x="809" y="1446" type="curve" smooth="yes"/>
      <point x="758" y="1446"/>
      <point x="693" y="1466"/>
      <point x="608" y="1466" type="curve" smooth="yes"/>
      <point x="259" y="1466"/>
      <point x="57" y="1193"/>
      <point x="57" y="738" type="curve" smooth="yes"/>
      <point x="57" y="694" type="line" smooth="yes"/>
      <point x="57" y="240"/>
      <point x="260" y="-34"/>
    </contour>
    <contour>
      <point x="596" y="261" type="curve" smooth="yes"/>
      <point x="446" y="261"/>
      <point x="366" y="409"/>
      <point x="366" y="689" type="curve" smooth="yes"/>
      <point x="366" y="743" type="line" smooth="yes"/>
      <point x="366" y="1030"/>
      <point x="450" y="1182"/>
      <point x="608" y="1182" type="curve" smooth="yes"/>
      <point x="757" y="1182"/>
      <point x="826" y="1037"/>
      <point x="826" y="759" type="curve" smooth="yes"/>
      <point x="826" y="689" type="line" smooth="yes"/>
      <point x="826" y="409"/>
      <point x="746" y="261"/>
    </contour>
  </outline>
</glyph>
<glyph name="Uhorn.alt" format="2">
  <advance width="1200"/>
  <outline>
    <contour>
      <point x="530" y="-34" type="curve" smooth="yes"/>
      <point x="810" y="-34"/>
      <point x="997" y="154"/>
      <point x="997" y="432" type="curve" smooth="yes"/>
      <point x="997" y="1418" type="line"/>
      <point x="795" y="1301" type="line"/>
      <point x="846" y="1301" type="line" smooth="yes"/>
      <point x="1072" y="1301"/>
      <point x="1219" y="1402"/>
      <point x="1219" y="1603" type="curve" smooth="yes"/>
      <point x="1219" y="1663"/>
      <point x="1207" y="1725"/>
      <point x="1186" y="1786" type="curve"/>
      <point x="899" y="1702" type="line"/>
      <point x="916" y="1647"/>
      <point x="927" y="1589"/>
      <point x="927" y="1540" type="curve" smooth="yes"/>
      <point x="927" y="1467"/>
      <point x="892" y="1432"/>
      <point x="810" y="1432" type="curve" smooth="yes"/>
      <point x="707" y="1432" type="line"/>
      <point x="707" y="445" type="line" smooth="yes"/>
      <point x="707" y="326"/>
      <point x="641" y="253"/>
      <point x="532" y="253" type="curve" smooth="yes"/>
      <point x="423" y="253"/>
      <point x="357" y="326"/>
      <point x="357" y="445" type="curve" smooth="yes"/>
      <point x="357" y="1432" type="line"/>
      <point x="63" y="1432" type="line"/>
      <point x="63" y="432" type="line" smooth="yes"/>
      <point x="63" y="153"/>
      <point x="249" y="-34"/>
    </contour>
  </outline>
</glyph>
<glyph name=".notdef" format="2">
  <advance width="1200"/>
  <outline>
    <contour>
      <point x="174" y="0" type="line"/>
      <point x="1026" y="0" type="line"/>
      <point x="1026" y="1432" type="line"/>
      <point x="174" y="1432" type="line"/>
    </contour>
    <contour>
      <point x="302" y="120" type="line"/>
      <point x="302" y="1312" type="line"/>
      <point x="898" y="1312" type="line"/>
      <point x="898" y="120" type="line"/>
    </contour>
  </outline>
</glyph>
<glyph name="brevecomb_hookabovecomb" format="2">
  <anchor x="0" y="1052" name="_top"/>
  <outline>
    <contour>
      <point x="0" y="1161" type="curve" smooth="yes"/>
      <point x="240" y="1161"/>
      <point x="411" y="1318"/>
      <point x="411" y="1541" type="curve" smooth="yes"/>
      <point x="411" y="1550" type="line"/>
      <point x="210" y="1550" type="line"/>
      <point x="210" y="1538" type="line" smooth="yes"/>
      <point x="210" y="1418"/>
      <point x="137" y="1342"/>
      <point x="0" y="1342" type="curve" smooth="yes"/>
      <point x="-136" y="1342"/>
      <point x="-209" y="1418"/>
      <point x="-209" y="1538" type="curve" smooth="yes"/>
      <point x="-209" y="1550" type="line"/>
      <point x="-411" y="1550" type="line"/>
      <point x="-411" y="1541" type="line" smooth="yes"/>
      <point x="-411" y="1318"/>
      <point x="-239" y="1161"/>
    </contour>
    <contour>
      <point x="-70" y="1475" type="line"/>
      <point x="108" y="1494"/>
      <point x="215" y="1590"/>
      <point x="215" y="1732" type="curve" smooth="yes"/>
      <point x="215" y="1879"/>
      <point x="104" y="1971"/>
      <point x="-72" y="1971" type="curve" smooth="yes"/>
      <point x="-143" y="1971"/>
      <point x="-207" y="1961"/>
      <point x="-276" y="1938" type="curve"/>
      <point x="-230" y="1765" type="line"/>
      <point x="-178" y="1780"/>
      <point x="-130" y="1787"/>
      <point x="-78" y="1787" type="curve" smooth="yes"/>
      <point x="2" y="1787"/>
      <point x="40" y="1764"/>
      <point x="40" y="1715" type="curve" smooth="yes"/>
      <point x="40" y="1668"/>
      <point x="-2" y="1641"/>
      <point x="-88" y="1635" type="curve"/>
    </contour>
  </outline>
</glyph>
<glyph name="circumflexcomb_gravecomb" format="2">
  <anchor x="0" y="1052" name="_top"/>
  <outline>
    <contour>
      <point x="-461" y="1164" type="line"/>
      <point x="-159" y="1164" type="line"/>
      <point x="20" y="1388" type="line"/>
      <point x="-19" y="1388" type="line"/>
      <point x="160" y="1164" type="line"/>
      <point x="462" y="1164" type="line"/>
      <point x="462" y="1177" type="line"/>
      <point x="120" y="1531" type="line"/>
      <point x="-120" y="1531" type="line"/>
      <point x="-461" y="1177" type="line"/>
    </contour>
    <contour>
      <point x="361" y="1469" type="line"/>
      <point x="567" y="1469" type="line"/>
      <point x="567" y="1482" type="line"/>
      <point x="356" y="1887" type="line"/>
      <point x="93" y="1887" type="line"/>
      <point x="93" y="1874" type="line"/>
    </contour>
  </outline>
</glyph>
<glyph name="circumflexcomb_tildecomb" format="2">
  <anchor x="0" y="1052" name="_top"/>
  <outline>
    <contour>
      <point x="-461" y="1164" type="line"/>
      <point x="-159" y="1164" type="line"/>
      <point x="20" y="1388" type="line"/>
      <point x="-19" y="1388" type="line"/>
      <point x="160" y="1164" type="line"/>
      <point x="462" y="1164" type="line"/>
      <point x="462" y="1177" type="line"/>
      <point x="120" y="1531" type="line"/>
      <point x="-120" y="1531" type="line"/>
      <point x="-461" y="1177" type="line"/>
    </contour>
    <contour>
      <point x="207" y="1620" type="curve" smooth="yes"/>
      <point x="338" y="1620"/>
      <point x="409" y="1707"/>
      <point x="409" y="1874" type="curve" smooth="yes"/>
      <point x="409" y="1954" type="line"/>
      <point x="199" y="1954" type="line"/>
      <point x="199" y="1897" type="line" smooth="yes"/>
      <point x="199" y="1847"/>
      <point x="176" y="1820"/>
      <point x="138" y="1820" type="curve" smooth="yes"/>
      <point x="102" y="1820"/>
      <point x="68" y="1836"/>
      <point x="-5" y="1887" type="curve" smooth="yes"/>
      <point x="-71" y="1933"/>
      <point x="-125" y="1957"/>
      <point x="-194" y="1957" type="curve" smooth="yes"/>
      <point x="-327" y="1957"/>
      <point x="-408" y="1866"/>
      <point x="-408" y="1703" type="curve" smooth="yes"/>
      <point x="-408" y="1623" type="line"/>
      <point x="-198" y="1623" type="line"/>
      <point x="-198" y="1679" type="line" smooth="yes"/>
      <point x="-198" y="1729"/>
      <point x="-174" y="1757"/>
      <point x="-133" y="1757" type="curve" smooth="yes"/>
      <point x="-92" y="1757"/>
      <point x="-59" y="1740"/>
      <point x="15" y="1689" type="curve" smooth="yes"/>
      <point x="81" y="1643"/>
      <point x="137" y="1620"/>
    </contour>
  </outline>
</glyph>
<glyph name="g.ss01" format="2">
  <advance width="1200"/>
  <outline>
    <contour>
      <point x="607" y="-459" type="curve" smooth="yes"/>
      <point x="899" y="-459"/>
      <point x="1082" y="-273"/>
      <point x="1082" y="24" type="curve" smooth="yes"/>
      <point x="1082" y="1052" type="line"/>
      <point x="796" y="1052" type="line"/>
      <point x="796" y="906" type="line"/>
      <point x="787" y="906" type="line"/>
      <point x="728" y="1027"/>
      <point x="634" y="1086"/>
      <point x="500" y="1086" type="curve" smooth="yes"/>
      <point x="257" y="1086"/>
      <point x="92" y="874"/>
      <point x="92" y="561" type="curve" smooth="yes"/>
      <point x="92" y="549" type="line" smooth="yes"/>
      <point x="92" y="234"/>
      <point x="261" y="23"/>
      <point x="515" y="23" type="curve" smooth="yes"/>
      <point x="642" y="23"/>
      <point x="747" y="90"/>
      <point x="798" y="210" type="curve"/>
      <point x="807" y="210" type="line"/>
      <point x="807" y="14" type="line" smooth="yes"/>
      <point x="807" y="-127"/>
      <point x="731" y="-209"/>
      <point x="601" y="-209" type="curve" smooth="yes"/>
      <point x="512" y="-209"/>
      <point x="438" y="-171"/>
      <point x="378" y="-97" type="curve"/>
      <point x="195" y="-291" type="line"/>
      <point x="283" y="-398"/>
      <point x="432" y="-459"/>
    </contour>
    <contour>
      <point x="591" y="273" type="curve" smooth="yes"/>
      <point x="467" y="273"/>
      <point x="394" y="376"/>
      <point x="394" y="551" type="curve" smooth="yes"/>
      <point x="394" y="559" type="line" smooth="yes"/>
      <point x="394" y="734"/>
      <point x="467" y="836"/>
      <point x="592" y="836" type="curve" smooth="yes"/>
      <point x="713" y="836"/>
      <point x="790" y="728"/>
      <point x="790" y="559" type="curve" smooth="yes"/>
      <point x="790" y="551" type="line" smooth="yes"/>
      <point x="790" y="381"/>
      <point x="713" y="273"/>
    </contour>
  </outline>
</glyph>
<glyph name="uhorn.alt" format="2">
  <advance width="1200"/>
  <outline>
    <contour>
      <point x="419" y="-34" type="curve" smooth="yes"/>
      <point x="547" y="-34"/>
      <point x="642" y="41"/>
      <point x="701" y="146" type="curve"/>
      <point x="711" y="146" type="line"/>
      <point x="711" y="0" type="line"/>
      <point x="999" y="0" type="line"/>
      <point x="999" y="1050" type="line"/>
      <point x="787" y="929" type="line"/>
      <point x="859" y="929" type="line" smooth="yes"/>
      <point x="1054" y="929"/>
      <point x="1197" y="1028"/>
      <point x="1197" y="1193" type="curve" smooth="yes"/>
      <point x="1197" y="1242"/>
      <point x="1189" y="1295"/>
      <point x="1175" y="1345" type="curve"/>
      <point x="889" y="1274" type="line"/>
      <point x="902" y="1228"/>
      <point x="911" y="1181"/>
      <point x="911" y="1139" type="curve" smooth="yes"/>
      <point x="911" y="1084"/>
      <point x="877" y="1052"/>
      <point x="811" y="1052" type="curve" smooth="yes"/>
      <point x="710" y="1052" type="line"/>
      <point x="710" y="408" type="line" smooth="yes"/>
      <point x="710" y="286"/>
      <point x="650" y="210"/>
      <point x="553" y="210" type="curve" smooth="yes"/>
      <point x="468" y="210"/>
      <point x="418" y="265"/>
      <point x="418" y="359" type="curve" smooth="yes"/>
      <point x="418" y="1052" type="line"/>
      <point x="129" y="1052" type="line"/>
      <point x="129" y="295" type="line" smooth="yes"/>
      <point x="129" y="92"/>
      <point x="238" y="-34"/>
    </contour>
  </outline>
</glyph>
